<svg height="32" viewBox="0 0 32 32" fill="none" xmlns="http://www.w3.org/2000/svg">
    <circle cx="16" cy="16" r="15.75" fill="black" stroke="#656565" stroke-width="0.5"/>
    <g transform="scale(0.5) translate(18,6.4)">
        <path d="M21.5015 32.4022C22.5943 32.4022 23.661 32.5262 24.6758 32.7743C24.7746 32.8002 24.8839 32.8208 24.9828 32.8518C26.3045 33.1826 27.85 33.7149 28.9844 34.4075V26.2417H28.9896V22.0605H28.9844V17.3936C28.9844 9.46032 22.4798 3 14.4922 3C6.50458 3 0.00520366 9.47065 0.00520366 17.4039V27.0272C0.541181 26.3864 1.09797 25.7662 1.69119 25.177C2.4197 24.4534 3.18984 23.7764 4.00682 23.1562V17.4039C4.00682 11.6568 8.71093 6.98989 14.4922 6.98989C20.2735 6.98989 24.9776 11.662 24.9776 17.4039V28.7689C24.8787 28.7482 24.7694 28.7276 24.6706 28.7069C23.6454 28.5208 22.5735 28.4227 21.4963 28.4227C12.7854 28.4227 5.51068 34.6711 4.00161 42.9093V34.6401C4.00161 34.6401 4.00682 34.6349 4.00682 34.6246C6.94168 30.1437 11.5469 26.8412 16.9275 25.5749C18.2232 25.27 19.5554 25.084 20.9291 25.0323V21.0475V17.5538C20.9291 14.0291 18.0411 11.1607 14.4922 11.1607C10.9433 11.1607 8.05527 14.0291 8.05527 17.5538V20.6909C8.6693 20.3292 9.40301 19.9467 10.2512 19.6056C10.8965 19.3472 11.5053 19.1508 12.0569 19.0061V17.5538C12.0569 16.2204 13.1496 15.1351 14.4922 15.1351C15.8347 15.1351 16.9275 16.2204 16.9275 17.5538V21.5024C11.9372 22.4792 7.47766 24.9134 4.00682 28.3451C2.46133 29.8801 1.11358 31.6115 0.00520366 33.4927V34.5522C0.00520366 34.5522 0 34.5574 0 34.5677V47.8656H7.83151C7.75345 47.2868 7.71182 46.6924 7.71182 46.0981C7.71182 45.3435 7.77427 44.6096 7.89395 43.8912C8.9555 37.3792 14.6535 32.4022 21.4963 32.4022H21.5015Z"
              fill="url(#paint0_linear_9041_1838)"/>
        <path d="M28.9844 38.6094C27.8656 37.5499 26.5022 36.7385 24.988 36.2527H24.9828C23.9837 35.9323 22.9273 35.7617 21.8189 35.7617C21.1685 35.7617 20.5336 35.8238 19.9144 35.9426C18.8372 36.1339 17.8225 36.4956 16.8963 36.9866C14.2632 38.4079 12.3067 40.9093 11.6562 43.8914C11.4949 44.5994 11.4116 45.3437 11.4116 46.0982C11.4116 46.7029 11.4689 47.2921 11.5729 47.8709H15.5798C15.4288 47.3283 15.3508 46.7598 15.3508 46.1706C15.3508 42.7957 17.963 40.0307 21.2882 39.7568C21.3454 39.7516 21.4079 39.7465 21.4703 39.7465C21.5848 39.7413 21.7045 39.7361 21.8241 39.7361C21.9751 39.7361 22.126 39.7361 22.2717 39.7516C22.4018 39.762 22.537 39.7723 22.6671 39.793C22.8753 39.8188 23.073 39.855 23.276 39.9015C23.2916 39.9015 23.302 39.9067 23.3176 39.9118C23.9108 40.0514 24.4728 40.2788 24.988 40.5682V43.726C25.4927 43.9483 25.9038 44.155 26.2004 44.31C26.7832 44.6149 27.4181 44.9509 28.1622 45.4987C28.5317 45.7675 28.8127 46.0156 29 46.1809C29 43.6588 28.9948 41.1315 28.9896 38.6094H28.9844Z"
              fill="url(#paint1_linear_9041_1838)"/>
        <path d="M21.3143 43.7622C20.1383 43.7622 19.1808 44.7132 19.1808 45.8812C19.1808 47.0492 20.1383 48.0002 21.3143 48.0002C22.4903 48.0002 23.4478 47.0492 23.4478 45.8812C23.4478 44.7132 22.4903 43.7622 21.3143 43.7622Z"
              fill="white"/>
    </g>
    <defs>
        <linearGradient id="paint0_linear_9041_1838" x1="0" y1="3" x2="40.9024" y2="29.4288"
                        gradientUnits="userSpaceOnUse">
            <stop stop-color="#0CA0EB"/>
            <stop offset="1" stop-color="#0165A3"/>
        </linearGradient>
        <linearGradient id="paint1_linear_9041_1838" x1="11.4116" y1="35.7617" x2="22.7236" y2="52.1921"
                        gradientUnits="userSpaceOnUse">
            <stop stop-color="#0CA0EB"/>
            <stop offset="1" stop-color="#0165A3"/>
        </linearGradient>
    </defs>
</svg>