<svg width="24" height="24" viewBox="0 0 24 24" fill="none" xmlns="http://www.w3.org/2000/svg">
    <circle cx="12" cy="12" r="11.75" fill="#F3BA2F" stroke="#656565" stroke-width="0.5"/>
    <path d="M8.73472 10.6599L12.0009 7.39962L15.2684 10.6625L17.1678 8.76447L12.0009 3.60352L6.83398 8.76315L8.73472 10.6599Z" fill="#000"/>
    <path d="M3.5918 12.0004L5.49184 10.103L7.39189 12.0004L5.49184 13.8977L3.5918 12.0004Z" fill="#000"/>
    <path d="M8.73543 13.3402L12.0016 16.6018L15.2691 13.3389L17.1699 15.2343L17.1685 15.2356L12.0016 20.3966L6.83469 15.2382L6.83203 15.2356L8.73543 13.3402Z" fill="#000"/>
    <path d="M16.6074 12.0007L18.5075 10.1034L20.4075 12.0007L18.5075 13.8981L16.6074 12.0007Z" fill="#000"/>
    <path d="M13.9286 11.9993L12.0013 10.0734L10.576 11.4966L10.4113 11.6597L10.0739 11.9966L10.0713 11.9993L10.0739 12.0033L12.0013 13.9265L13.9286 12.0006L13.9299 11.9993H13.9286Z" fill="#000"/>
</svg>
