<svg width="334" height="334" viewBox="0 0 334 334" fill="none" xmlns="http://www.w3.org/2000/svg">
<circle cx="166.923" cy="166.923" r="166.923" fill="url(#paint0_linear_1_4376)"/>
<path d="M212.486 117.304C212.486 107.708 219.9 99.9289 229.045 99.9289H229.047C238.193 99.9289 245.606 107.708 245.606 117.304C245.606 126.901 238.193 134.68 229.047 134.68H229.045C219.9 134.68 212.486 126.901 212.486 117.304Z" fill="white"/>
<path d="M97.2931 189.461H112.303C117.304 189.461 121.358 185.207 121.358 179.96V125.386C121.358 125.374 121.361 125.363 121.361 125.351V110.878C121.361 108.358 122.315 105.941 124.013 104.159L125.228 102.885C126.926 101.104 129.229 100.103 131.63 100.103H204.044C209.045 100.103 213.1 95.8488 213.1 90.6015V74.8543C213.1 69.6071 209.045 65.3534 204.044 65.3534H130.416C125.415 65.3534 121.361 69.6071 121.361 74.8543V89.3481C121.361 91.868 120.407 94.2845 118.709 96.0663L117.514 97.3198C115.816 99.1016 113.513 100.103 111.111 100.103H97.2981C92.2972 100.103 88.243 104.356 88.243 109.604V121.309C88.243 121.326 88.2382 121.342 88.2382 121.359V179.96C88.2382 185.207 92.2922 189.461 97.2931 189.461Z" fill="white"/>
<path d="M88.2425 216.37C88.2425 225.966 95.6564 233.745 104.802 233.745H104.803C113.949 233.745 121.363 225.966 121.363 216.37C121.363 206.773 113.949 198.994 104.803 198.994H104.802C95.6564 198.994 88.2425 206.773 88.2425 216.37Z" fill="#31CB9E"/>
<path d="M120.749 243.245V258.992C120.749 264.239 124.803 268.493 129.804 268.493H203.433C208.434 268.493 212.488 264.239 212.488 258.992V245.772C212.488 243.252 213.442 240.836 215.14 239.054L217.549 236.526C219.247 234.745 221.55 233.744 223.952 233.744H236.551C241.552 233.744 245.606 229.49 245.606 224.243V208.495C245.606 203.248 241.552 198.994 236.551 198.994H221.543C216.542 198.994 212.488 203.248 212.488 208.495V224.243C212.488 226.762 211.534 229.179 209.836 230.961C208.138 232.743 205.834 233.744 203.433 233.744H129.804C124.803 233.744 120.749 237.997 120.749 243.245Z" fill="#31CB9E"/>
<defs>
<linearGradient id="paint0_linear_1_4376" x1="0" y1="166.923" x2="333.846" y2="166.923" gradientUnits="userSpaceOnUse">
<stop stop-color="#009C8A"/>
<stop offset="1" stop-color="#105A73"/>
</linearGradient>
</defs>
</svg>
