<svg xmlns="http://www.w3.org/2000/svg" width="16" height="16" viewBox="0 0 16 16" fill="none">
    <circle cx="8" cy="8" r="7.75" fill="black" stroke="#656565" stroke-width="0.5"/>
    <g transform="scale(0.6) translate(5,5)">
        <g clip-path="url(#clip0_1735_59983)">
            <path d="M6.31536 3.5634C4.54708 3.05704 2.54488 4.63288 1.84356 7.08324C1.1422 9.53324 2.00724 11.9297 3.77552 12.4361C5.5438 12.9425 7.546 11.3666 8.24736 8.91628C8.94868 6.46628 8.08364 4.06976 6.31536 3.5634ZM6.01744 5.86496C5.9756 6.37208 5.53036 6.74928 5.02324 6.70708C4.51616 6.66528 4.13892 6.22 4.18112 5.71292C4.22296 5.20584 4.6682 4.8286 5.17532 4.8708C5.6824 4.91264 6.05964 5.35788 6.01744 5.86496Z" fill="#4AFB39"/>
            <path d="M12.7013 5.47761C11.3204 5.08257 9.7573 6.31285 9.20982 8.22589C8.66238 10.139 9.3375 12.0102 10.7184 12.4052C12.0993 12.8006 13.6624 11.57 14.2099 9.65697C14.7573 7.74389 14.0822 5.87269 12.7013 5.47761ZM12.4979 7.69225C12.4561 8.19933 12.0109 8.57657 11.5038 8.53437C10.9967 8.49253 10.6195 8.04729 10.6616 7.54021C10.7038 7.03309 11.1487 6.65585 11.6558 6.69805C12.1629 6.73989 12.5401 7.18517 12.4979 7.69225Z" fill="#4AFB39"/>
        </g>
        <defs>
            <clipPath id="clip0_1735_59983">
                <rect width="210.233" height="40" fill="white"/>
            </clipPath>
        </defs>
    </g>
</svg>
