<svg height="32" viewBox="0 0 32 32" fill="none" xmlns="http://www.w3.org/2000/svg">
    <circle cx="16" cy="16" r="15.75" fill="black" stroke="#656565" stroke-width="0.5"/>
    <g transform="scale(0.6) translate(10,10)">
        <path fill-rule="evenodd" clip-rule="evenodd"
              d="M0 0H32V32H0V0ZM1.50856 1.50856V13.4333H5.37415V17.5399H1.50856V30.4914H11.7908V24.8292H5.88747V17.9506H12.766V23.6998H17.7966V17.7966H23.2891V11.7393H30.4914V1.50856H1.50856ZM18.6693 24.6751V30.4914H23.2378V24.6751L18.6693 24.6751ZM30.4914 24.6751L23.2892 24.6751V17.9505H30.4914V24.6751ZM13.4334 13.5359H17.54V17.6425H13.4334V13.5359ZM23.2891 7.58148H19.1825V11.6881H23.2891V7.58148ZM7.11938 7.63275H11.226V11.7393H7.11938V7.63275ZM13.1767 1.62689H17.2833V5.73348H13.1767V1.62689Z"
              fill="#FACA20"/>
    </g>
</svg>