<svg version="1.1" xmlns="http://www.w3.org/2000/svg" width="64" height="64" viewBox="0 0 32 32" fill="none">
<circle cx="16" cy="16" r="15.75" fill="black" stroke="#656565" stroke-width="0.5"/>
<g transform="scale(0.35) translate(13,13)">

<path d="M0 0 C0 0.66 0 1.32 0 2 C0.886875 2.2475 1.77375 2.495 2.6875 2.75 C9.87746437 5.4631941 14.55997099 11.27630694 18 18 C21.41034412 28.59001596 20.55279564 37.82229879 16 48 C14.4910832 50.35594679 13.00048501 51.99951499 11 54 C10.443125 54.61875 9.88625 55.2375 9.3125 55.875 C8 57 8 57 6 57 C6 57.66 6 58.32 6 59 C-4.69816738 62.75609639 -13.17844399 64.8838784 -23.9921875 60.75390625 C-25.97251553 59.94284241 -25.97251553 59.94284241 -28.04296875 59.625 C-34.24683132 57.64372653 -39.12340979 48.5396835 -42 43 C-45.03189434 35.20370027 -45.03189434 26.79629973 -42 19 C-37.40229555 10.27442951 -30.72700923 3.03842702 -21.3125 -0.3125 C-14.34876102 -1.75421159 -6.91164086 -1.57944261 0 0 Z " fill="#FAFBFC" transform="translate(44,1)"/>
<path d="M0 0 C0.68835938 0.01353516 1.37671875 0.02707031 2.0859375 0.04101562 C3.76597001 0.0760163 5.4455935 0.12981046 7.125 0.1875 C7.125 1.1775 7.125 2.1675 7.125 3.1875 C5.125 4.875 5.125 4.875 3.125 6.1875 C3.125 5.5275 3.125 4.8675 3.125 4.1875 C2.42632812 4.620625 1.72765625 5.05375 1.0078125 5.5 C0.09773438 6.056875 -0.81234375 6.61375 -1.75 7.1875 C-2.65492187 7.744375 -3.55984375 8.30125 -4.4921875 8.875 C-6.875 10.1875 -6.875 10.1875 -8.875 10.1875 C-8.875 11.5075 -8.875 12.8275 -8.875 14.1875 C-12.10291555 16.3394437 -13.15900809 16.38836443 -16.875 16.1875 C-17.205 18.4975 -17.535 20.8075 -17.875 23.1875 C-16.946875 22.6925 -16.01875 22.1975 -15.0625 21.6875 C-10.13531562 19.528055 -5.15218611 19.92984354 0.125 20.1875 C-0.205 19.1975 -0.535 18.2075 -0.875 17.1875 C5.74956914 17.60153557 10.97650886 19.72151396 15.51953125 24.72265625 C18.7298515 29.5211208 18.9904495 34.58010846 18.125 40.1875 C16.7924793 44.56816181 14.54537254 47.28094392 10.625 49.625 C4.42681796 52.27478042 -2.21865373 52.31613036 -8.62109375 50.33984375 C-15.98264131 47.03443046 -21.52590502 41.80027013 -24.8125 34.375 C-26.99569498 27.35856833 -26.86677417 20.57827499 -23.8125 13.875 C-18.63102664 4.65373385 -10.65951666 -0.40283057 0 0 Z " fill="#263772" transform="translate(31.875,6.8125)"/>
<path d="M0 0 C0.68835938 0.01353516 1.37671875 0.02707031 2.0859375 0.04101562 C3.76597001 0.0760163 5.4455935 0.12981046 7.125 0.1875 C7.125 1.1775 7.125 2.1675 7.125 3.1875 C5.125 4.875 5.125 4.875 3.125 6.1875 C3.125 5.5275 3.125 4.8675 3.125 4.1875 C2.42632812 4.620625 1.72765625 5.05375 1.0078125 5.5 C0.09773438 6.056875 -0.81234375 6.61375 -1.75 7.1875 C-2.65492187 7.744375 -3.55984375 8.30125 -4.4921875 8.875 C-6.875 10.1875 -6.875 10.1875 -8.875 10.1875 C-8.875 11.5075 -8.875 12.8275 -8.875 14.1875 C-12.10291555 16.3394437 -13.15900809 16.38836443 -16.875 16.1875 C-17.205 18.4975 -17.535 20.8075 -17.875 23.1875 C-15.48926621 25.07963369 -13.80324652 26.21141783 -10.875 27.1875 C-10.545 25.8675 -10.215 24.5475 -9.875 23.1875 C-4.85024332 22.89192608 -1.95147409 23.1592621 2.125 26.1875 C4.125 28.1875 4.125 28.1875 4.5 31 C4.0425983 34.88791449 2.82007803 36.41315497 0.125 39.1875 C-4.09509171 41.29754586 -9.2930681 40.69723992 -13.875 40.1875 C-18.29353917 38.52364384 -21.14295926 36.56007639 -23.375 32.375 C-23.54 31.653125 -23.705 30.93125 -23.875 30.1875 C-24.535 30.1875 -25.195 30.1875 -25.875 30.1875 C-26.57459702 22.00998813 -25.6301874 15.99769301 -20.875 9.1875 C-15.03916971 2.75451499 -8.75314768 -0.33078756 0 0 Z " fill="#2489C5" transform="translate(31.875,6.8125)"/>
<path d="M0 0 C0.515625 0.7425 1.03125 1.485 1.5625 2.25 C5.27095559 6.43389862 8.38180908 8.61580894 13.875 9.421875 C21.04366029 9.74446471 24.61729085 8.68061665 30 4 C30.66 4 31.32 4 32 4 C32 3.34 32 2.68 32 2 C32.66 2 33.32 2 34 2 C33.86190465 7.52381404 31.52135907 10.36355451 27.8984375 14.23046875 C24.51865707 17.38075791 21.5430533 18.77497139 17 19.4375 C10.83037247 18.53776265 7.04309574 14.36583956 3.2578125 9.73828125 C0.9199645 6.50740435 0 3.96469536 0 0 Z " fill="#192E52" transform="translate(7,37)"/>
<path d="M0 0 C0.33 0 0.66 0 1 0 C1 1.65 1 3.3 1 5 C1.70125 5.185625 2.4025 5.37125 3.125 5.5625 C8.2262263 8.11311315 11.03055693 12.35194678 13.875 17.1875 C15.4396423 22.4898989 15.24328878 27.51248635 15 33 C14.34 33 13.68 33 13 33 C12.86464844 32.41992188 12.72929688 31.83984375 12.58984375 31.2421875 C10.86531798 24.98432751 8.4662867 21.52856582 3 18 C0.25452126 16.62949404 0.25452126 16.62949404 -2 16 C1.19243642 14.93585453 1.92847342 15.18092625 5 16 C5.33 15.67 5.66 15.34 6 15 C1.1284628 12.70751191 -2.74024015 12.21399657 -7.875 14 C-8.57625 14.33 -9.2775 14.66 -10 15 C-9.875 13.25 -9.875 13.25 -9 11 C-7.576875 10.1028125 -7.576875 10.1028125 -6.125 9.1875 C-2.1684144 6.41789008 -1.54871945 4.47407841 0 0 Z " fill="#3687BB" transform="translate(43,5)"/>
<path d="M0 0 C1.46373047 0.02707031 1.46373047 0.02707031 2.95703125 0.0546875 C3.69308594 0.07789062 4.42914062 0.10109375 5.1875 0.125 C5.5175 0.785 5.8475 1.445 6.1875 2.125 C2.5575 2.785 -1.0725 3.445 -4.8125 4.125 C-5.1425 5.115 -5.4725 6.105 -5.8125 7.125 C-7.4625 6.795 -9.1125 6.465 -10.8125 6.125 C-10.8125 4.805 -10.8125 3.485 -10.8125 2.125 C-7.04027911 0.37336544 -4.145861 -0.09990027 0 0 Z " fill="#2D417B" transform="translate(26.8125,26.875)"/>
<path d="M0 0 C0.99 0.33 1.98 0.66 3 1 C1.73882275 4.88862987 0.54735833 6.89375599 -3 9 C-3.66 9 -4.32 9 -5 9 C-5.33 9.66 -5.66 10.32 -6 11 C-6.66 9.68 -7.32 8.36 -8 7 C-7.34 6.01 -6.68 5.02 -6 4 C-4.68 4 -3.36 4 -2 4 C-1.34 2.68 -0.68 1.36 0 0 Z M-9 9 C-8.34 9.66 -7.68 10.32 -7 11 C-10 13 -10 13 -13 13 C-12.67 12.01 -12.34 11.02 -12 10 C-11.01 9.67 -10.02 9.34 -9 9 Z " fill="#C2D4E1" transform="translate(39,7)"/>
<path d="M0 0 C1.65 0 3.3 0 5 0 C5 3.96 5 7.92 5 12 C4.34 12 3.68 12 3 12 C2.49440092 10.56445975 1.9957251 9.1264798 1.5 7.6875 C1.2215625 6.88699219 0.943125 6.08648437 0.65625 5.26171875 C0 3 0 3 0 0 Z " fill="#449BCF" transform="translate(53,26)"/>
<path d="M0 0 C0.33 0 0.66 0 1 0 C0.63015313 6.16411455 -0.70238643 8.80005946 -5 13 C-7.8125 14.375 -7.8125 14.375 -10 15 C-9.875 13.25 -9.875 13.25 -9 11 C-7.576875 10.1028125 -7.576875 10.1028125 -6.125 9.1875 C-2.1684144 6.41789008 -1.54871945 4.47407841 0 0 Z " fill="#2E4364" transform="translate(43,5)"/>
<path d="M0 0 C3.27310883 0.20892184 5.32433057 0.43694214 7.875 2.5625 C8.431875 3.2740625 8.431875 3.2740625 9 4 C6.00468461 4.99843846 4.82744268 5.00732761 1.8125 4.5625 C0.554375 4.376875 -0.70375 4.19125 -2 4 C-2 2 -2 2 0 0 Z " fill="#E8EFF4" transform="translate(41,17)"/>
<path d="M0 0 C0.66 0.33 1.32 0.66 2 1 C1.67 1.99 1.34 2.98 1 4 C-0.9375 4.5625 -0.9375 4.5625 -3 5 C-3.66 5.66 -4.32 6.32 -5 7 C-5.66 6.67 -6.32 6.34 -7 6 C-7 5.34 -7 4.68 -7 4 C-1.7265625 0.77734375 -1.7265625 0.77734375 0 0 Z " fill="#E1ECF3" transform="translate(30,13)"/>
<path d="M0 0 C2 1 2 1 2 1 Z " fill="#FEFDFE" transform="translate(44,0)"/>
<path d="" fill="#FEFEFE" transform="translate(0,0)"/>
<path d="" fill="#FEFEFE" transform="translate(0,0)"/>
<path d="" fill="#FEFEFE" transform="translate(0,0)"/>
<path d="" fill="#FEFEFE" transform="translate(0,0)"/>
<path d="" fill="#FEFEFE" transform="translate(0,0)"/>
<path d="" fill="#FEFEFE" transform="translate(0,0)"/>
<path d="" fill="#FEFEFE" transform="translate(0,0)"/>
<path d="" fill="#FDFDFD" transform="translate(0,0)"/>
<path d="" fill="#FEFEFE" transform="translate(0,0)"/>
<path d="" fill="#FEFEFE" transform="translate(0,0)"/>
<path d="" fill="#FEFEFF" transform="translate(0,0)"/>
<path d="" fill="#FEFEFE" transform="translate(0,0)"/>
<path d="" fill="#FEFEFE" transform="translate(0,0)"/>
<path d="" fill="#FEFEFE" transform="translate(0,0)"/>
<path d="" fill="#FEFEFE" transform="translate(0,0)"/>
<path d="" fill="#FEFEFE" transform="translate(0,0)"/>
<path d="" fill="#FEFEFE" transform="translate(0,0)"/>
</g>
</svg>
