<svg xmlns="http://www.w3.org/2000/svg" width="32" height="32" viewBox="0 0 32 32" fill="none">
    <circle cx="16" cy="16" r="15.75" fill="black" stroke="#656565" stroke-width="0.5"/>
    <g transform="scale(0.4) translate(10,10)">
        <defs>
            <clipPath id="clip0">
                <rect width="60" height="60" fill="white"/>
            </clipPath>
            <mask id="mask0" maskUnits="userSpaceOnUse" x="8" y="8" width="44" height="44">
                <circle cx="30" cy="30" r="21.3333" fill="#A01F1A"/>
            </mask>
        </defs>
        <g clip-path="url(#clip0)">
            <circle cx="30" cy="30" r="22.9333" fill="#A01F1A" stroke="black" stroke-width="3.2"/>
            <g mask="url(#mask0)">
                <path d="M-6.46667 16.5332L-1.62013 18.4796C0.596147 19.3697 3.0705 19.3697 5.28678 18.4796L6.67987 17.9201C8.89615 17.0301 11.3705 17.0301 13.5868 17.9201L14.9799 18.4796C17.1961 19.3697 19.6705 19.3697 21.8868 18.4796L23.2799 17.9201C25.4961 17.0301 27.9705 17.0301 30.1868 17.9201L31.5799 18.4796C33.7961 19.3697 36.2705 19.3697 38.4868 18.4796L39.8799 17.9201C42.0961 17.0301 44.5705 17.0301 46.7868 17.9201L48.1799 18.4796C50.3961 19.3697 52.8705 19.3697 55.0868 18.4796L59.9333 16.5332"
                      stroke="white" stroke-width="3.2" stroke-linecap="round" stroke-linejoin="round"/>
                <path d="M-6.46667 28.3335L-1.62013 30.2799C0.596147 31.17 3.0705 31.17 5.28678 30.2799L6.67987 29.7204C8.89615 28.8304 11.3705 28.8304 13.5868 29.7204L14.9799 30.2799C17.1961 31.17 19.6705 31.17 21.8868 30.2799L23.2799 29.7204C25.4961 28.8304 27.9705 28.8304 30.1868 29.7204L31.5799 30.2799C33.7961 31.17 36.2705 31.17 38.4868 30.2799L39.8799 29.7204C42.0961 28.8304 44.5705 28.8304 46.7868 29.7204L48.1799 30.2799C50.3961 31.17 52.8705 31.17 55.0868 30.2799L59.9333 28.3335"
                      stroke="white" stroke-width="3.2" stroke-linecap="round" stroke-linejoin="round"/>
                <path d="M-6.46667 40.1333L-1.62013 42.0797C0.596147 42.9698 3.0705 42.9698 5.28678 42.0797L6.67987 41.5202C8.89615 40.6302 11.3705 40.6302 13.5868 41.5202L14.9799 42.0797C17.1961 42.9698 19.6705 42.9698 21.8868 42.0797L23.2799 41.5202C25.4961 40.6302 27.9705 40.6302 30.1868 41.5202L31.5799 42.0797C33.7961 42.9698 36.2705 42.9698 38.4868 42.0797L39.8799 41.5202C42.0961 40.6302 44.5705 40.6302 46.7868 41.5202L48.1799 42.0797C50.3961 42.9698 52.8705 42.9698 55.0868 42.0797L59.9333 40.1333"
                      stroke="white" stroke-width="3.2" stroke-linecap="round" stroke-linejoin="round"/>
            </g>
            <path d="M55.5926 20.0655C51.7741 21.5836 48.3524 19.3712 45.3273 21.2556L43.127 21.9347C43.0609 21.9347 43.2163 21.4388 44.3668 19.4551C45.5173 17.4715 48.0861 16.678 49.2267 16.5293L49.2206 16.5231C49.0226 16.3253 48.745 16.048 48.3524 14.134C47.1622 10.792 54.1525 7.02312 56.4356 10.0673C59.1135 13.6378 60.1054 18.2713 55.5926 20.0655Z"
                  fill="#FF4942"/>
            <path d="M45.3273 21.2556C48.3523 19.3712 51.7741 21.5836 55.5926 20.0655C60.1053 18.2713 59.1135 13.6378 56.4356 10.0673C54.1525 7.02312 47.1621 10.792 48.3523 14.134C48.749 16.0679 49.526 16.9606 50.0384 17.3078"
                  stroke="black" stroke-width="1.86667"/>
            <path d="M51.1897 12.2447C50.5549 12.6414 50.4955 13.5671 50.545 13.8812C51.5369 13.7324 52.2807 13.4349 52.8758 13.1374C53.8676 12.6414 54.7602 11.9968 55.0082 11.6C55.2561 11.2033 54.6115 10.9554 54.0164 10.8562C53.4213 10.757 53.5701 11.2033 52.727 11.2033C51.884 11.2033 51.9832 11.7488 51.1897 12.2447Z"
                  fill="#FF8744" stroke="black" stroke-width="0.8"/>
            <path d="M56.039 9.65137C57.0308 12.1309 49.5128 15.7411 48.2036 13.5194" stroke="black"
                  stroke-width="1.86667"/>
            <path d="M49.4929 16.3154C47.3109 16.6626 44.0379 18.3791 42.8973 22.2471" stroke="black"
                  stroke-width="1.86667"/>
            <path d="M8.56662 34.3667C6.76661 29.1334 9.76662 25.3667 11.3816 24.06L11.9999 24.06C11.2459 26.7935 10.2666 29.7667 12.2666 36.9334C14.2666 44.1001 10.9666 44.9667 6.76661 47.6334C7.46662 44.5667 4.94709 42.5374 4.59995 41.0001C6.16662 39.6334 10.2755 39.3351 8.56662 34.3667Z"
                  fill="#DE2042" stroke="black" stroke-width="1.06667"/>
            <path d="M6.0667 26.2669C7.92156 26.4614 10.0713 24.8283 10.6334 24.2002L11.1 24.7669C10.819 25.4115 10.8 27.5669 7.3667 28.8669C3.50003 30.3309 11.1 36.7002 2.4667 40.4669C0.400011 37.8335 3.73337 37.1669 1.3667 34.0335C5.2667 33.1669 1.30003 25.7669 6.0667 26.2669Z"
                  fill="#DE2042" stroke="black" stroke-width="1.06667"/>
            <path d="M12.1911 24.9374C12.5137 25.8488 11.8896 26.7333 11.1 26.7333C10.3104 26.7333 9.09998 25.3964 9.09998 24.6333C9.09998 23.8702 10.0507 23.3581 10.8714 23.7152C11.5313 24.1403 11.9162 24.5654 12.1911 24.9374Z"
                  fill="#DE2042" stroke="black" stroke-width="1.06667"/>
            <mask id="mask1_25_485" maskUnits="userSpaceOnUse" x="5" y="8" width="50" height="44">
                <path clip-rule="evenodd" fill-rule="evenodd"
                      d="M36.6906 9.66676H54.0667V44.0668H46.1277C42.2047 48.5608 36.434 51.4001 30 51.4001C23.5661 51.4001 17.7953 48.5608 13.8723 44.0668H5.93335V9.66676H23.3095C25.4144 8.97457 27.6635 8.6001 30 8.6001C32.3366 8.6001 34.5857 8.97457 36.6906 9.66676Z"
                      fill="#D9D9D9"/>
            </mask>
            <g mask="url(#mask1_25_485)">
                <path d="M51.1293 24.3299C53.0138 28.793 50.5342 33.2562 46.7158 34.2478C46.908 37.2678 45.5172 43.7344 38.4158 45.4403C38.8919 47.6223 39.2754 50.5812 39.4076 51.7879C37.8886 55.1105 34.4173 55.7551 28.8944 56.3998C23.9849 55.7055 17.6373 52.733 14.5627 50.6998C14.5627 47.764 17.3027 41.7236 17.6333 40.5665C16.939 40.583 17.0422 40.6201 15.6537 38.7951C13.918 36.5139 16.4967 34.3815 18.1828 35.175C16.0008 32.9434 15.1578 32.3979 14.5627 30.9102C14.0866 29.72 13.637 27.6372 13.4717 26.7446C13.9015 25.4883 15.6636 22.2715 19.2738 19.4547C23.7866 15.9338 32.6007 13.088 35.905 15.5027C37.3431 17.7839 37.0471 19.745 37.8886 20.8089C39.423 22.7488 40.8145 22.3958 42.3022 22.594C44.2528 20.8418 49.2449 19.8667 51.1293 24.3299Z"
                      fill="#FDCDB7"/>
                <path d="M13.4221 26.1992C13.3229 27.968 14.2338 32.5026 18.3994 35.24M46.319 30.9752C48.5506 38.0667 43.1948 46.3948 33.5246 45.6045C29.4868 45.2744 27.0918 44.0096 25.2926 42.399"
                      stroke="black" stroke-width="1.86667"/>
                <path d="M18.7466 35.3889C17.3581 34.8435 15.3504 34.9054 15.1265 36.9761C14.9281 38.8107 16.515 40.5819 18.7466 40.7943C20.7798 40.9879 22.3753 40.0167 22.5651 38.166"
                      stroke="black" stroke-width="1.86667"/>
                <path d="M17.8539 38.3146C17.7333 37.6666 18.0477 37.2884 18.6666 37.2C19.2328 37.119 19.9487 37.4408 20.2343 37.5189"
                      stroke="black" stroke-width="0.8"/>
                <path d="M18.0188 40.4668C15.2188 42.7668 14.3672 49.3102 14.8694 52.8305" stroke="black"
                      stroke-width="1.86667"/>
                <path d="M46.7158 34.248C50.5343 33.2564 53.0138 28.7932 51.1294 24.3301C49.2449 19.867 44.2528 20.842 42.3022 22.5942C40.8145 22.396 39.9667 22.5667 38.9 21.6333C37.4667 20.3792 37.6 16.7 35.905 15.5029"
                      stroke="black" stroke-width="1.86667"/>
                <path d="M42.0047 21.9001C39.9219 20.5611 37.6407 22.5943 36.996 24.4292L34.8141 27.2063C32.7808 27.6031 33.0784 30.033 35.3595 30.876C37.6407 31.7189 40.3313 31.0744 42.4014 28.8924C44.4715 26.7104 44.0875 23.2391 42.0047 21.9001Z"
                      fill="#FDCDB7"/>
                <path d="M36.9959 24.4291C37.6406 22.5942 39.4572 21.0416 41.8376 21.7359C44.2179 22.4302 44.9856 25.852 43.0278 28.4307C41.0699 31.0094 38.0191 31.7036 35.6883 31.0094C33.3576 30.3152 32.9999 27.6998 34.814 27.2062"
                      stroke="black" stroke-width="1.86667"/>
                <path d="M32.2667 22.8998C32.5808 23.5114 33.3479 24.2289 33.7727 23.983C34.3991 23.6204 34.1011 22.1917 33.4568 20.3474C32.4467 17.4559 33.3081 16.0177 35.0933 16.9256"
                      stroke="black" stroke-width="1.2"/>
                <path d="M32.285 22.8667C32.7313 23.6601 32.7383 24.4893 32.285 24.6772C31.6667 24.9333 30.2831 23.6205 28.7953 21.984C27.3076 20.3475 26.0678 19.1573 24.8959 19.8173C24.0038 20.3197 24.233 21.6369 24.5305 22.1328"
                      stroke="black" stroke-width="1.2"/>
                <path d="M27.5737 25.5201C27.8465 24.5342 28.8284 23.5482 30.8467 23.9107" stroke="black"
                      stroke-width="1.2"/>
                <ellipse cx="35.5393" cy="21.1806" rx="1.10636" ry="1.90476" transform="rotate(-26 35.5393 21.1806)"
                         fill="black"/>
                <path d="M20.8295 23.8838C21.0774 24.8095 22.1783 26.6014 24.5984 26.3633" stroke="black"
                      stroke-width="1.2"/>
                <path d="M18.35 25.52C18.5653 25.9972 19.5219 27.0917 21.623 26.7983" stroke="black"
                      stroke-width="1.2"/>
                <path d="M37.3744 31.2574C32.5641 32.7451 28.4664 32.1157 25.5901 30.0328C22.8772 28.0683 22.3171 30.7271 22.3171 31.6693"
                      stroke="black" stroke-width="1.86667"/>
                <path d="M22.3171 31.6695C22.3171 29.7851 23.4577 28.3965 25.8381 28.6941" stroke="black"
                      stroke-width="1.86667"/>
                <path d="M38.8667 45.2666C39.1246 45.9439 39.7869 47.442 40.1561 52.2093" stroke="black"
                      stroke-width="1.86667"/>
                <path d="M21.4 44.3335C22.3996 48.1261 26.7103 53.4002 31.3334 55.5335" stroke="black"
                      stroke-width="1.2"/>
                <path d="M26.6 46.9331C27.4763 48.9658 30.7083 53.7105 33.4 54.5998" stroke="black"
                      stroke-width="1.2"/>
            </g>
            <path d="M25.1439 4.29535C20.9287 5.78313 18.0341 8.29706 16.1993 15.1406C15.2736 14.9918 13.0354 15.091 11.4882 16.6779C9.55412 18.6615 8.85985 21.6866 12.3808 25.2075C13.9677 21.9841 16.3481 19.207 19.2243 17.1242C22.1006 15.0414 25.9556 13.0479 28.4978 12.3635C31.0765 11.6692 33.8806 11.6692 35.3413 11.6692C36.7794 4.37938 30.6485 2.35248 25.1439 4.29535Z"
                  fill="white"/>
            <path d="M15.7529 17.6694C16.6952 9.8341 20.9286 5.78285 25.1439 4.29507C30.6484 2.3522 36.8473 4.64232 35.4091 11.9322"
                  stroke="black" stroke-width="1.86667"/>
            <path d="M16.4158 14.9575C13.242 14.9575 10.1178 16.6437 9.86987 19.9166C9.62192 23.1895 12.2502 25.8179 13.9363 25.7683"
                  stroke="black" stroke-width="1.86667"/>
            <path d="M25.2431 16.1475C19.1732 18.3692 14.6306 24.0989 13.1429 26.7603C12.8784 26.595 12.143 26.1085 12.6471 24.7763C13.3413 22.9414 16.4729 18.8228 20.7799 15.9991C25.2431 13.0728 30.6485 11.3867 35.0621 11.6842C39.4756 11.9817 40.4179 14.0068 40.6658 15.1477C40.9138 16.2885 40.6804 17.8877 38.3001 18.4332L37.9001 17.2332C37.8009 16.9357 37.6025 16.4398 37.6025 16.4398C37.0001 14.5665 36.0877 15.5207 35.3596 15.1477C33.5729 14.2322 29.5557 14.569 25.2431 16.1475Z"
                  fill="#55575C"/>
            <path d="M36.6001 16.2998C36.3001 15.7665 36.0877 15.5207 35.3596 15.1477C33.5729 14.2322 29.5557 14.569 25.2431 16.1475C19.1732 18.3692 14.6306 24.0989 13.1429 26.7603C10.5334 25.4332 19.7996 17.741 21.1334 16.8665C25.5966 13.9403 30.946 11.069 35.3596 11.3665C39.7732 11.664 40.8521 13.7257 41.1001 14.8665C41.348 16.0074 40.6658 18.0998 37.6001 18.7665"
                  stroke="black" stroke-width="1.86667"/>
            <path d="M21.0333 16.2002V16.2002C21.161 16.9324 21.7344 17.5058 22.4666 17.6335V17.6335V17.6335C21.7344 17.7612 21.161 18.3346 21.0333 19.0669V19.0669V19.0669C20.9056 18.3346 20.3322 17.7612 19.6 17.6335V17.6335V17.6335C20.3322 17.5058 20.9056 16.9324 21.0333 16.2002V16.2002Z"
                  fill="white"/>
        </g>
        <defs>
            <clipPath id="clip0_25_485">
                <rect width="60" height="60" fill="white"/>
            </clipPath>
        </defs>
    </g>
</svg>