<svg width="36" height="36" viewBox="0 0 597 600" fill="none" xmlns="http://www.w3.org/2000/svg" class="lg:hidden" data-sentry-element="svg" data-sentry-source-file="LogoIcon.tsx" data-sentry-component="LogoIcon"><path d="M279.968 203.602L111.454 8.54525C107.509 3.97911 112.797 -2.10696 118.25 0.722263L508.643 195.779C513.78 198.444 512.164 205.641 506.424 205.67L284.545 205.67C282.794 205.678 281.101 204.913 279.968 203.602Z" fill="#59F6FD" data-sentry-element="path" data-sentry-source-file="LogoIcon.tsx"></path><path d="M518.422 241.437L289.175 593.272C285.96 598.223 277.642 594.853 278.855 589.091L333.585 328.942C333.895 327.47 334.866 326.225 336.253 325.523L510.769 233.838C515.766 231.306 521.38 236.881 518.422 241.437Z" fill="#59F6FD" data-sentry-element="path" data-sentry-source-file="LogoIcon.tsx"></path><path d="M281.579 215.773L506.66 214.313C512.476 214.276 514.86 221.603 509.888 224.238L333.699 317.635C333.05 317.979 332.327 318.191 331.575 318.259L91.928 339.896C86.0448 340.428 83.0627 333.051 87.9776 330.125L278.734 216.55C279.577 216.048 280.561 215.779 281.579 215.773Z" fill="#FF8E5E" data-sentry-element="path" data-sentry-source-file="LogoIcon.tsx"></path></svg>