<svg width="24" height="24" viewBox="0 0 24 24" fill="none" xmlns="http://www.w3.org/2000/svg">
    <circle cx="12" cy="12" r="11.75" fill="black" stroke="#656565" stroke-width="0.5"/>
    <path d="M12.8111 17.8455C17.3871 17.7144 19.2961 16.9109 19.924 16.2565L19.9838 16.8048L20.0124 16.7763C20.0312 16.8386 20.0379 16.9794 20.0093 17.1092C19.9294 17.668 18.2666 19.1163 11.8258 19.1163C11.5906 19.1163 11.3665 19.1137 11.1533 19.1084C11.6332 18.681 12.0425 18.261 12.3933 17.8543C12.531 17.8525 12.6702 17.8495 12.8111 17.8455Z" fill="#007FFF"/>
    <path d="M19.6247 16.234C19.6499 16.8694 18.2213 18.1591 12.3053 18.2344C9.59165 18.269 7.47988 17.8934 5.9127 17.3854C5.60541 17.281 4.9348 16.9757 4.71057 16.5892C4.58649 16.3753 4.58502 15.8264 4.62813 15.2615C4.64029 15.3008 4.65446 15.3349 4.67083 15.3632C4.89462 15.7497 5.56935 16.0541 5.87874 16.158C7.45685 16.6634 9.58532 17.035 12.3237 16.9946C17.0386 16.925 18.9341 16.1027 19.512 15.4466L19.6247 16.234Z" fill="#F5F3E6"/>
    <path d="M12.9498 17.2442C10.2362 17.2787 8.12441 16.9032 6.55722 16.3952C6.24995 16.2908 5.57933 15.9854 5.3551 15.599C5.23103 15.3851 5.22955 14.8361 5.27267 14.2712C5.28483 14.3105 5.29899 14.3446 5.31536 14.3729C5.53915 14.7595 6.21388 15.0638 6.52327 15.1677C8.10138 15.6731 10.2298 16.0447 12.9682 16.0043C16.0131 15.9593 17.8821 15.6005 18.9797 15.1752C18.9791 15.185 18.9785 15.1949 18.9779 15.2047C18.9322 15.9072 18.888 16.589 17.0881 16.9091C16.0465 17.0943 14.6929 17.222 12.9498 17.2442Z" fill="#FDC541"/>
    <path d="M12.9498 16.254C10.2362 16.2885 8.12441 15.913 6.55722 15.405C6.24995 15.3006 5.57933 14.9952 5.3551 14.6087C5.23103 14.3949 5.22955 13.846 5.27267 13.281C5.28483 13.3203 5.29899 13.3544 5.31536 13.3827C5.53915 13.7693 6.21388 14.0737 6.52327 14.1775C8.10138 14.683 10.2298 15.0545 12.9682 15.0141C16.0131 14.9691 17.8821 14.6103 18.9797 14.1851C18.9791 14.1949 18.9785 14.2047 18.9779 14.2145C18.9322 14.917 18.888 15.5988 17.0881 15.9189C16.0465 16.1042 14.6929 16.2318 12.9498 16.254Z" fill="#FF1100"/>
    <path d="M12.5143 4.63636C13.6058 5.02683 15.2217 7.18557 12.9528 12.6968C11.9121 15.2247 10.4174 16.9299 8.91798 18.0461C8.61586 18.2618 7.82448 18.6822 7.07599 18.6375C6.783 18.62 6.22957 18.4368 5.59668 18.1867C5.74343 18.2254 5.86834 18.2494 5.96495 18.2552C6.71344 18.3003 7.50482 17.8756 7.80694 17.6576C9.30639 16.5296 10.8011 14.8064 11.8418 12.2518C13.715 7.65363 12.9402 5.36476 11.9987 4.48425L12.5143 4.63636Z" fill="#FF1100"/>
    <path d="M13.4479 4.69897C14.5395 5.10068 16.1553 7.32161 13.8865 12.9916C12.8458 15.5923 11.3511 17.3466 9.85161 18.495C9.54951 18.7169 8.75813 19.1493 8.00964 19.1034C7.71664 19.0854 7.16319 18.8969 6.53027 18.6396C6.67704 18.6794 6.80198 18.7041 6.8986 18.7101C7.64709 18.7565 8.43846 18.3195 8.74058 18.0952C10.2401 16.9348 11.7347 15.1619 12.7754 12.5338C14.6486 7.80316 13.8738 5.44837 12.9324 4.54248L13.4479 4.69897Z" fill="#FDC541"/>
    <path d="M14.2682 5.22301C15.3597 5.62473 16.9756 7.84566 14.7068 13.5156C13.6661 16.1164 12.1714 17.8707 10.672 19.019C10.3698 19.2409 9.57842 19.6734 8.82996 19.6275C8.53696 19.6095 7.9835 19.4209 7.35059 19.1637C7.49736 19.2034 7.6223 19.2282 7.71892 19.2342C8.4674 19.2806 9.25878 18.8436 9.5609 18.6193C11.0604 17.4588 12.555 15.686 13.5957 13.0578C15.4689 8.32721 14.6941 5.97241 13.7527 5.06653L14.2682 5.22301Z" fill="#F5F3E6"/>
    <path d="M15.455 13.7703C17.7238 7.89032 16.1079 5.58716 15.0164 5.17056L14.5009 5.0083C14.5108 5.01815 14.5206 5.02817 14.5304 5.03836C13.7387 4.90874 12.654 5.44633 11.6309 6.47554C11.4846 6.62118 12.1254 6.38133 12.3326 6.17491C12.8296 5.76711 13.5732 5.563 14.2721 5.85616C15.849 6.51764 15.8817 10.0014 14.3451 13.6373C12.8085 17.2733 10.4599 19.6264 8.88293 18.9649C8.67212 18.8764 8.45165 18.711 8.26847 18.5838C7.84527 18.2059 7.65448 17.7013 7.65448 16.3991V18.0056C7.54346 17.8405 7.44979 17.6554 7.37683 17.4477C7.36208 17.0982 7.12819 16.5156 7.05615 17.1273C7.11053 18.4619 7.68934 19.2377 8.47068 19.7008L8.46708 19.7005C8.43779 19.6986 8.41523 19.698 8.39571 19.6974C8.32108 19.6953 8.29087 19.6944 8.09901 19.6308C8.71169 19.8995 9.04709 20.0245 9.41474 20.0386C10.2757 20.0716 11.2762 19.5697 11.5783 19.3395C13.0778 18.1487 14.4142 16.4673 15.455 13.7703Z" fill="#007FFF"/>
    <path d="M12.3386 10.7908C15.0522 10.7563 17.164 11.1318 18.7311 11.6398C19.0384 11.7442 19.709 12.0496 19.9332 12.436C20.0573 12.6499 20.0588 13.1988 20.0157 13.7637C20.0035 13.7245 19.9894 13.6903 19.973 13.6621C19.7492 13.2755 19.0745 12.9711 18.7651 12.8672C17.187 12.3618 15.0585 11.9902 12.3201 12.0306C9.27527 12.0756 7.40628 12.4344 6.30859 12.8597C6.30924 12.8499 6.30987 12.8401 6.31051 12.8303C6.35609 12.1278 6.40032 11.4459 8.20026 11.1258C9.24183 10.9406 10.5954 10.813 12.3386 10.7908Z" fill="#FF1100"/>
    <path d="M12.3386 11.9077C15.0522 11.8732 17.164 12.2487 18.7311 12.7567C19.0384 12.8611 19.709 13.1665 19.9332 13.5529C20.0573 13.7668 20.0588 14.3157 20.0157 14.8806C20.0035 14.8414 19.9894 14.8073 19.973 14.779C19.7492 14.3924 19.0745 14.088 18.7651 13.9841C17.187 13.4787 15.0585 13.1072 12.3201 13.1476C9.27527 13.1926 7.40628 13.5514 6.30859 13.9766C6.30924 13.9668 6.30987 13.957 6.31051 13.9472C6.35609 13.2447 6.40032 12.5629 8.20026 12.2428C9.24183 12.0575 10.5954 11.9299 12.3386 11.9077Z" fill="#FDC541"/>
    <path d="M5.01888 14.9566C4.99365 14.3212 6.42219 13.0315 12.3383 12.9562C15.0519 12.9216 17.1637 13.2971 18.7308 13.8052C19.0381 13.9095 19.7087 14.2149 19.9329 14.6014C20.057 14.8153 20.0585 15.3642 20.0154 15.9291C20.0032 15.8899 19.9891 15.8557 19.9727 15.8274C19.7489 15.4408 19.0742 15.1364 18.7648 15.0326C17.1867 14.5271 15.0582 14.1556 12.3198 14.196C7.60488 14.2657 5.70946 15.0879 5.13147 15.744L5.01888 14.9566Z" fill="#F5F3E6"/>
    <path d="M5.01888 16.1219C4.99365 15.4865 6.42219 14.1968 12.3383 14.1215C15.0519 14.0869 17.1637 14.4624 18.7308 14.9705C19.0381 15.0748 19.7087 15.3802 19.9329 15.7667C20.0448 15.9594 20.057 16.424 20.0268 16.9273C19.787 16.5537 19.0679 16.2996 18.7649 16.1978C17.1868 15.6924 15.0583 15.3209 12.32 15.3613C7.60468 15.4309 5.70933 16.2533 5.13148 16.9094L5.01888 16.1219Z" fill="#007FFF"/>
    <path d="M5.54386 18.4808C4.45231 18.0759 2.83643 15.8376 5.10529 10.1231C6.14599 7.50192 7.64066 5.7338 9.14012 4.57649C9.44223 4.3528 10.2336 3.91698 10.9821 3.96325C11.4053 3.98941 12.3717 4.37419 13.3361 4.80826C13.2369 4.81856 13.1411 4.82911 13.0497 4.83918C12.7181 4.87571 12.4437 4.90594 12.2686 4.89531C11.5201 4.84987 10.7287 5.2778 10.4266 5.49745C8.92713 6.63382 7.43246 8.36994 6.39176 10.9437C4.50693 15.605 5.30306 17.9108 6.25237 18.7857L5.54386 18.4808Z" fill="#FF1100"/>
    <path d="M6.47746 18.9296C5.3859 18.5203 3.77002 16.2576 6.03889 10.4811C7.07959 7.83151 8.57426 6.0442 10.0737 4.87432C10.3758 4.6482 11.1672 4.20765 11.9157 4.25443C12.2425 4.27484 12.8931 4.51139 13.6166 4.82013C13.3464 4.72953 13.1216 4.67191 12.9683 4.66225C12.2198 4.61514 11.4284 5.05885 11.1263 5.28659C9.6268 6.46485 8.13215 8.26496 7.09145 10.9335C4.82259 16.7514 6.49093 18.9566 7.58247 19.3688L8.51808 19.6892L6.47746 18.9296Z" fill="#FDC541"/>
    <path d="M7.35733 19.3205C6.26579 18.9068 4.6499 16.6199 6.91877 10.7813C7.95946 8.10325 9.45414 6.29674 10.9536 5.11429C11.2557 4.88574 12.0471 4.44046 12.7956 4.48774C13.1337 4.5091 13.8189 4.76449 14.5727 5.09257C14.3179 5.01122 14.1057 4.95978 13.9591 4.95032C13.2106 4.90204 12.4252 5.30208 12.1231 5.53549C10.6237 6.74307 9.12898 8.58797 8.08829 11.323C6.15099 16.4142 7.49361 18.9103 8.46235 19.7477L7.35733 19.3205Z" fill="#F5F3E6"/>
    <path d="M7.85236 11.1036C5.5835 16.9834 7.19938 19.2867 8.29093 19.7033L8.80644 19.8655C8.79657 19.8556 8.78671 19.8456 8.77688 19.8354C9.5686 19.965 10.6533 19.4275 11.6765 18.3983C11.8227 18.2526 11.182 18.4924 10.9747 18.6989C10.4777 19.1067 9.73412 19.3108 9.03523 19.0176C7.45827 18.3561 7.42557 14.8724 8.96218 11.2364C10.4988 7.60047 12.8474 5.24744 14.4244 5.90891C14.6352 5.99734 14.8557 6.16277 15.0388 6.29006C15.4621 6.66793 15.6528 7.17255 15.6528 8.47471V6.86816C15.7638 7.03326 15.8575 7.21834 15.9305 7.42606C15.9452 7.77561 16.1791 8.35818 16.2511 7.74648C16.1968 6.41189 15.618 5.63614 14.8366 5.17305L14.8402 5.17327C14.8695 5.17516 14.8921 5.1758 14.9116 5.17637C14.9862 5.17852 15.0164 5.17938 15.2083 5.24297C14.5956 4.97428 14.2602 4.84926 13.8926 4.83517C13.0315 4.80217 12.0311 5.30408 11.729 5.53424C10.2295 6.72507 8.89306 8.4065 7.85236 11.1036Z" fill="#007FFF"/>
</svg>
