<svg xmlns="http://www.w3.org/2000/svg" version="1.1" width="192" height="192">
    <path d="M0 0 C1.58629997 1.32980248 3.16992669 2.66280497 4.75 4 C5.63751953 4.66902344 5.63751953 4.66902344 6.54296875 5.3515625 C24.34928083 19.13982316 34.83006155 43.23120514 37.75 65 C38.02852791 68.92193819 38.08480754 72.819093 38.0625 76.75 C38.05686035 77.79986084 38.0512207 78.84972168 38.04541016 79.93139648 C37.70599918 101.77635709 29.8854087 122.27600822 15.75 139 C14.74839844 140.22009766 14.74839844 140.22009766 13.7265625 141.46484375 C-1.36323533 159.1422423 -23.36195511 169.92993192 -46.25 173 C-50.17193819 173.27852791 -54.069093 173.33480754 -58 173.3125 C-59.04986084 173.30686035 -60.09972168 173.3012207 -61.18139648 173.29541016 C-83.02635709 172.95599918 -103.52600822 165.1354087 -120.25 151 C-121.06339844 150.33226562 -121.87679687 149.66453125 -122.71484375 148.9765625 C-140.3922423 133.88676467 -151.17993192 111.88804489 -154.25 89 C-154.52852791 85.07806181 -154.58480754 81.180907 -154.5625 77.25 C-154.55686035 76.20013916 -154.5512207 75.15027832 -154.54541016 74.06860352 C-154.18293685 50.73931939 -145.39904685 30.57289435 -130.25 13 C-129.46496094 12.01386719 -128.67992187 11.02773438 -127.87109375 10.01171875 C-125.08606932 6.81163852 -122.20787208 4.22553908 -118.875 1.625 C-118.27067139 1.15312256 -117.66634277 0.68124512 -117.04370117 0.19506836 C-83.28192569 -25.42464634 -33.67421287 -26.63554281 0 0 Z " fill="#FEFEFE" transform="translate(154.25,19)"/>
    <path d="M0 0 C7.86015763 5.00729922 14.48526766 12.22816477 16.6875 21.4375 C17.5894401 30.45690105 16.90949578 39.37301793 11.9375 47.25 C11.298125 48.013125 10.65875 48.77625 10 49.5625 C9.34 49.5625 8.68 49.5625 8 49.5625 C8 50.2225 8 50.8825 8 51.5625 C7.34 51.5625 6.68 51.5625 6 51.5625 C6 52.2225 6 52.8825 6 53.5625 C-2.53967437 58.63595733 -10.42772239 62.17087524 -20.51953125 60.02734375 C-25.69551746 58.60724558 -29.73583926 56.81672793 -34 53.5625 C-33.5844157 49.09847094 -30.47386326 46.65648929 -27.43359375 43.703125 C-26.88010757 43.15388367 -26.3266214 42.60464233 -25.75636292 42.03875732 C-23.99033441 40.28949536 -22.21415308 38.55096356 -20.4375 36.8125 C-19.23694559 35.626995 -18.0370674 34.44080476 -16.83789062 33.25390625 C-13.89970905 30.34876707 -10.95237926 27.45320663 -8 24.5625 C-7.01 25.2225 -6.02 25.8825 -5 26.5625 C-5.33 27.8825 -5.66 29.2025 -6 30.5625 C-6.66 30.5625 -7.32 30.5625 -8 30.5625 C-8 31.2225 -8 31.8825 -8 32.5625 C-8.66 32.5625 -9.32 32.5625 -10 32.5625 C-10 33.2225 -10 33.8825 -10 34.5625 C-10.66 34.5625 -11.32 34.5625 -12 34.5625 C-12.26554687 35.14515625 -12.53109375 35.7278125 -12.8046875 36.328125 C-14.03302996 38.62424228 -15.40314939 40.36606018 -17.125 42.3125 C-17.66382812 42.92609375 -18.20265625 43.5396875 -18.7578125 44.171875 C-19.16773437 44.63078125 -19.57765625 45.0896875 -20 45.5625 C-10.16036592 45.45177645 -10.16036592 45.45177645 -2 40.5625 C1.33513246 35.73809456 2.75372363 31.48461425 2 25.5625 C0.17942998 19.69621883 -2.12885356 17.01289539 -7 13.5625 C-12.19555832 11.83064723 -16.44085884 11.86954837 -21.375 14.0625 C-22.24125 14.5575 -23.1075 15.0525 -24 15.5625 C-24.66 15.5625 -25.32 15.5625 -26 15.5625 C-26.68620031 16.88588632 -27.34786461 18.22199948 -28 19.5625 C-28.37125 20.305 -28.7425 21.0475 -29.125 21.8125 C-31.11451608 28.06526482 -30.01116516 33.52900452 -28 39.5625 C-28.66 39.5625 -29.32 39.5625 -30 39.5625 C-30 40.2225 -30 40.8825 -30 41.5625 C-30.66 41.5625 -31.32 41.5625 -32 41.5625 C-32 42.2225 -32 42.8825 -32 43.5625 C-32.66 43.5625 -33.32 43.5625 -34 43.5625 C-34 44.2225 -34 44.8825 -34 45.5625 C-34.66 45.5625 -35.32 45.5625 -36 45.5625 C-36 46.2225 -36 46.8825 -36 47.5625 C-37.86328125 47.296875 -37.86328125 47.296875 -40 46.5625 C-41.23046875 44.890625 -41.23046875 44.890625 -42.1875 42.8125 C-42.51105469 42.13703125 -42.83460937 41.4615625 -43.16796875 40.765625 C-46.36677302 32.29555173 -46.0267237 23.11870047 -42.328125 14.9140625 C-33.86617571 -0.06856536 -16.08246832 -8.13133202 0 0 Z " fill="#9505E2" transform="translate(77,67.4375)"/>
    <path d="M0 0 C7.71878529 4.44669153 13.6013127 9.94544364 17.171875 18.22265625 C17.796875 21.03515625 17.796875 21.03515625 17.796875 26.03515625 C13.176875 26.03515625 8.556875 26.03515625 3.796875 26.03515625 C3.28125 24.81828125 2.765625 23.60140625 2.234375 22.34765625 C-0.04347008 17.89478549 -2.46597697 14.89184064 -7.203125 13.03515625 C-12.33425252 12.41011805 -17.22584202 12.6130754 -22.203125 14.03515625 C-22.203125 14.69515625 -22.203125 15.35515625 -22.203125 16.03515625 C-23.0075 16.81890625 -23.811875 17.60265625 -24.640625 18.41015625 C-28.06203406 21.91501431 -28.35255686 24.63316973 -28.453125 29.41015625 C-28.39040874 33.65395677 -27.6188124 36.45327493 -25.203125 40.03515625 C-20.7707382 44.03511507 -18.2482022 45.19830915 -12.328125 45.28515625 C-10.75417969 45.32382813 -10.75417969 45.32382813 -9.1484375 45.36328125 C-5.86204979 44.99715848 -4.67031387 44.13724542 -2.203125 42.03515625 C-1.543125 42.03515625 -0.883125 42.03515625 -0.203125 42.03515625 C0.456875 40.38515625 1.116875 38.73515625 1.796875 37.03515625 C-9.093125 36.54015625 -9.093125 36.54015625 -20.203125 36.03515625 C-20.203125 34.38515625 -20.203125 32.73515625 -20.203125 31.03515625 C-7.663125 31.03515625 4.876875 31.03515625 17.796875 31.03515625 C17.796875 39.47834143 15.80875785 44.57149097 10.296875 50.91015625 C9.471875 51.61140625 8.646875 52.31265625 7.796875 53.03515625 C7.013125 53.73640625 6.229375 54.43765625 5.421875 55.16015625 C-0.45990743 59.36142941 -5.55732239 60.5724657 -12.640625 60.47265625 C-13.3919873 60.46508301 -14.14334961 60.45750977 -14.91748047 60.44970703 C-20.49900183 60.28322142 -24.6993064 59.51292505 -29.203125 56.03515625 C-29.81285156 55.59945312 -30.42257813 55.16375 -31.05078125 54.71484375 C-37.52979218 49.68019831 -41.69383978 43.13041334 -43.203125 35.03515625 C-44.03733819 25.24804798 -42.46475433 16.81988461 -36.203125 9.03515625 C-26.34491152 -0.97674875 -13.84583585 -6.36080066 0 0 Z " fill="#9504E2" transform="translate(141.203125,66.96484375)"/>
</svg>