<svg xmlns="http://www.w3.org/2000/svg" width="40" height="40" viewBox="0 0 40 40" fill="none">
    <rect y="0.00012207" width="40" height="40" rx="20" fill="#9A9350"/>
    <path d="M19.7178 9V16.9369C19.7178 17.2703 19.3214 17.4324 19.0872 17.1982L15.3484 13.5496L16.916 9.47748C17.0241 9.18919 17.3034 9 17.6097 9H19.7178Z" fill="white"/>
    <path d="M19.7178 19.8108V24.2703C19.7178 24.5676 19.3665 24.7117 19.1502 24.5135L13.3575 19.0541L15.0602 14.6396L19.2854 18.7748C19.5647 19.0451 19.7178 19.4144 19.7178 19.8108Z" fill="white"/>
    <path d="M19.7178 27V29H10.7358C10.2223 29 9.8619 28.4775 10.0511 28L13.0601 20.1622L19.3033 26.0541C19.5736 26.2973 19.7178 26.6396 19.7178 27Z" fill="white"/>
    <path d="M20.6817 9V16.9369C20.6817 17.2703 21.0781 17.4324 21.3124 17.1982L25.0421 13.5496L23.4835 9.47748C23.3664 9.18919 23.0961 9 22.7898 9H20.6817Z" fill="white"/>
    <path d="M20.6818 19.8108V24.2703C20.6818 24.5676 21.0331 24.7117 21.2493 24.5135L27.0421 19.0541L25.3394 14.6396L21.1142 18.7748C20.8349 19.0451 20.6728 19.4144 20.6728 19.8108H20.6818Z" fill="white"/>
    <path d="M20.6817 27V29H29.6547C30.1772 29 30.5376 28.4775 30.3484 28L27.3304 20.1622L21.0871 26.0541C20.8259 26.2973 20.6817 26.6396 20.6817 27Z" fill="white"/>
</svg>