<svg width="33" height="32" viewBox="0 0 33 32" fill="none" xmlns="http://www.w3.org/2000/svg">
    <g clip-path="url(#clip0_171_2910)">
        <path d="M32.9678 16C32.9678 19.1645 32.0294 22.2579 30.2713 24.8891C28.5132 27.5203 26.0143 29.5711 23.0907 30.7821C20.1671 31.9931 16.95 32.3099 13.8463 31.6926C10.7426 31.0752 7.89171 29.5514 5.65407 27.3137C3.41643 25.0761 1.89258 22.2251 1.27522 19.1214C0.657853 16.0177 0.974706 12.8007 2.18571 9.87707C3.39671 6.95345 5.44747 4.45459 8.07866 2.69649C10.7098 0.938384 13.8033 0 16.9678 0C21.2112 0 25.2809 1.68571 28.2815 4.68629C31.2821 7.68687 32.9678 11.7565 32.9678 16Z"
              fill="#F7931A"/>
        <path fill-rule="evenodd" clip-rule="evenodd"
              d="M12.3397 7.30621L16.0168 8.29093L16.8386 5.22766L18.6772 5.72657L17.8874 8.6633L19.387 9.06621L20.1783 6.09748L22.0488 6.59784L21.243 9.58257C21.243 9.58257 24.2975 10.2589 25.0161 12.7433C25.7346 15.2277 23.4365 16.5324 22.7266 16.5818C22.7266 16.5818 25.403 18.0495 24.4837 20.9368C23.5645 23.824 20.7426 24.3404 17.7739 23.6786L16.9681 26.7738L15.0975 26.2735L15.9194 23.2262L14.4357 22.8218L13.6139 25.8909L11.7579 25.392L12.5812 22.3375L8.80664 21.3193L9.75791 19.2073C9.75791 19.2073 10.8226 19.4982 11.2255 19.5942C11.6285 19.6902 11.8874 19.2713 12.0008 18.8524C12.1143 18.4335 13.8234 11.4909 13.9848 10.9193C14.1463 10.3477 14.0808 9.90112 13.403 9.72512C12.7252 9.54912 11.803 9.27421 11.803 9.27421L12.3397 7.30621ZM16.0488 16.5004L15.0306 20.5484C15.0306 20.5484 20.0794 22.3709 20.7252 19.8066C21.371 17.2422 16.0488 16.5004 16.0488 16.5004ZM16.5172 14.5804L17.5165 10.8713C17.5165 10.8713 21.8394 11.6451 21.307 13.7091C20.7746 15.7731 18.2263 14.9818 16.5172 14.5804Z"
              fill="white"/>
    </g>
    <defs>
        <clipPath id="clip0_171_2910">
            <rect width="32" height="32" fill="white" transform="translate(0.967773)"/>
        </clipPath>
    </defs>
</svg>
