<svg width="256" height="256" viewBox="0 0 256 256" fill="none" xmlns="http://www.w3.org/2000/svg">
    <g clip-path="url(#clip0_8_3)">
        <rect width="256" height="256" fill="#DFD9D9"/>
        <path d="M153.018 199.027C160.881 199.027 167.23 192.682 167.23 184.855C167.23 177.028 160.881 170.683 153.018 170.683C145.217 170.683 138.867 177.028 138.867 184.855C138.867 192.682 145.217 199.027 153.018 199.027Z" fill="#19191A"/>
        <path d="M102.073 199.448C109.935 199.448 116.225 193.103 116.225 185.276C116.225 177.45 109.935 171.105 102.073 171.105C94.2719 171.105 87.9219 177.45 87.9219 185.276C87.9219 193.103 94.2719 199.448 102.073 199.448Z" fill="#19191A"/>
        <path d="M71.0365 51.3927H104.799C111.152 68.5801 127.731 117.277 128.941 119.991C129.243 118.634 145.943 65.5649 150.662 51.6943H185.756V172.759C181.399 170.346 177.042 167.935 172.323 165.22C169.055 163.563 166.03 161.753 162.703 160.396C162.4 136.877 162.098 113.508 161.372 89.0842C156.652 103.105 140.376 152.557 139.045 153.913H117.323C117.323 153.913 96.2066 93.9085 95.178 91.1949C94.8757 114.262 94.5731 137.329 93.7866 161.15C80.8383 167.783 73.1544 171.553 70.7344 172.457V51.3927H71.0365Z" fill="#19191A"/>
        <path d="M128.03 20.3533C187.265 20.3533 235.67 68.5983 235.67 128C235.67 187.402 187.447 235.647 128.03 235.647C68.6136 235.647 20.3904 187.402 20.3904 128C20.3904 68.5983 68.6136 20.3533 128.03 20.3533ZM128.03 0C57.2991 0 0 57.2911 0 128C0 198.709 57.2991 256 128.03 256C198.701 256 256 198.709 256 128C256 57.2911 198.701 0 128.03 0Z" fill="#19191A"/>
    </g>
    <defs>
        <clipPath id="clip0_8_3">
            <rect width="256" height="256" fill="white"/>
        </clipPath>
    </defs>
</svg>
