<svg xmlns="http://www.w3.org/2000/svg" width="70" height="70" viewBox="0 0 70 70" fill="none">
    <g clip-path="url(#clip0_102_14659)">
        <circle cx="35" cy="35" r="35" fill="#FFF"/>
        <path fill-rule="evenodd" clip-rule="evenodd" d="M56.9687 49.2348C56.9348 49.2606 56.9009 49.288 56.8655 49.3121C56.8316 49.3379 56.7961 49.362 56.7607 49.3878C56.6946 49.4345 56.6268 49.4796 56.5575 49.523C56.5495 49.5278 56.5414 49.5327 56.5333 49.5391C56.4769 49.5745 56.4205 49.61 56.3624 49.6438C56.277 49.6953 56.1931 49.7436 56.1061 49.7919C55.5159 50.1203 54.8952 50.3843 54.2616 50.6178C53.6634 50.8367 53.0571 51.0283 52.4461 51.1989C51.5706 51.4436 50.6838 51.6465 49.7889 51.8236C48.9199 51.9974 48.0476 52.1439 47.1721 52.2711C46.2966 52.3983 45.4179 52.5046 44.5376 52.5963C44.249 52.6269 43.9604 52.6543 43.6718 52.6817C43.0929 52.7348 42.5141 52.7799 41.9353 52.8185C41.6451 52.8378 41.3548 52.8555 41.0662 52.8716C40.4165 52.9087 39.7667 52.936 39.1169 52.957C38.9992 52.9602 38.8815 52.965 38.7622 52.9682C38.6542 52.9714 38.5462 52.9747 38.4365 52.9779C38.7026 52.6495 38.9686 52.3226 39.2121 51.9765C39.2475 51.9331 39.283 51.8896 39.3169 51.8445C39.8667 51.1072 40.3923 50.3537 40.8953 49.5858C40.9469 49.5826 40.9985 49.581 41.0485 49.5778C41.3677 49.56 41.687 49.5391 42.0062 49.5182C42.2481 49.5021 42.4899 49.4844 42.7318 49.4651C44.4231 49.3347 46.108 49.1479 47.7848 48.8855C48.2734 48.8098 48.7587 48.7261 49.2424 48.6376C50.3742 48.4283 51.4964 48.1771 52.6025 47.8616C52.8459 47.7924 53.0878 47.7199 53.3296 47.6443C53.4506 47.6056 53.5715 47.567 53.6924 47.5267C53.8746 47.5589 54.0407 47.6346 54.2116 47.6974C54.3615 47.7521 54.5115 47.8101 54.6614 47.8696C55.0855 48.0371 55.5014 48.2222 55.9045 48.4363C56.0641 48.52 56.2205 48.6086 56.3753 48.702C56.5801 48.8259 56.78 48.9563 56.9671 49.1061C57.0219 49.1495 57.038 49.1672 57.017 49.193C57.0074 49.2059 56.9912 49.2187 56.9654 49.2381L56.9687 49.2348Z" fill="#F1ECE2"/>
        <path fill-rule="evenodd" clip-rule="evenodd" d="M53.6975 47.525C53.5765 47.5653 53.4572 47.6039 53.3347 47.6426C53.0928 47.7182 52.851 47.7907 52.6075 47.8599C51.4999 48.1754 50.3793 48.4266 49.2474 48.6359C48.7637 48.726 48.2768 48.8081 47.7899 48.8838C46.1131 49.1462 44.4282 49.333 42.7368 49.4634C42.495 49.4827 42.2531 49.5004 42.0113 49.5165C41.692 49.5374 41.3728 49.5584 41.0536 49.5761C41.002 49.5793 40.952 49.5809 40.9004 49.5841C41.247 49.0545 41.584 48.5184 41.9097 47.9742C42.3805 47.1886 42.8304 46.3917 43.2576 45.5835C44.0735 45.6543 44.8877 45.7364 45.7019 45.8363C45.7616 45.8427 45.8212 45.8556 45.8825 45.8652C46.2469 45.891 46.608 45.9457 46.9676 45.9989C47.4303 46.0665 47.8931 46.1405 48.3542 46.2178C48.9766 46.3224 49.5989 46.4384 50.2164 46.572C50.5502 46.6444 50.8823 46.7185 51.2161 46.7909C51.2693 46.8199 51.3257 46.8312 51.3854 46.8376C52.098 47.0195 52.8091 47.2111 53.5072 47.4413C53.5717 47.4623 53.6459 47.4687 53.6959 47.5234L53.6975 47.525Z" fill="#FDBF41"/>
        <path fill-rule="evenodd" clip-rule="evenodd" d="M20.6721 59.133L20.6699 59.1309L20.6721 59.133Z" fill="#404A5A"/>
        <path fill-rule="evenodd" clip-rule="evenodd" d="M20.3948 58.9619C20.411 58.9732 20.4303 58.9812 20.4481 58.9893C20.461 58.9957 20.4739 59.0006 20.4867 59.007C20.5093 59.0183 20.5303 59.0328 20.5448 59.0537C20.5496 59.0601 20.5545 59.0698 20.5593 59.0794C20.4835 59.073 20.4174 59.0424 20.3594 58.9941L20.3948 58.9619Z" fill="#404A5A"/>
        <path fill-rule="evenodd" clip-rule="evenodd" d="M25.5657 56.5373C25.5028 56.547 25.4399 56.5566 25.3786 56.5663C25.1368 56.5985 24.8949 56.6178 24.6515 56.6242C24.5708 56.6258 24.4886 56.6274 24.408 56.6258C24.3258 56.6258 24.2452 56.6226 24.1629 56.6194C24.1275 56.6178 24.0936 56.613 24.0581 56.6097C24.0243 56.6065 23.9888 56.6017 23.9533 56.5985C23.9082 56.5953 23.8743 56.5759 23.8405 56.547C23.7437 56.46 23.6518 56.3699 23.5615 56.2765C24.229 56.3731 24.8965 56.46 25.5657 56.5389V56.5373Z" fill="#F1ECE2"/>
        <path fill-rule="evenodd" clip-rule="evenodd" d="M36.0683 45.2825C35.5878 45.2825 35.1073 45.2889 34.6268 45.297C33.8271 46.535 32.9645 47.7295 32.0229 48.8645C31.8246 49.1028 31.6247 49.3378 31.4199 49.5697C30.904 50.1573 30.3654 50.724 29.8011 51.2649C29.3061 51.7382 28.795 52.1906 28.2613 52.6156C27.8454 52.9489 27.4149 53.266 26.9683 53.5606C26.146 54.1048 25.2834 54.5732 24.3547 54.9145C23.8839 55.0868 23.4034 55.2269 22.9068 55.309C22.8794 55.3138 22.8536 55.3251 22.8262 55.3331C22.8278 55.3412 22.831 55.3508 22.8326 55.3589C22.8342 55.3637 22.8358 55.3685 22.8391 55.3734C22.8745 55.4281 22.91 55.4812 22.9471 55.5328C23.0213 55.639 23.0987 55.742 23.1777 55.8419C23.297 55.9916 23.4243 56.1365 23.5582 56.2749C24.2257 56.3715 24.8932 56.4584 25.5623 56.5373C25.7413 56.51 25.9186 56.4745 26.0944 56.4327C26.5023 56.3361 26.8989 56.2089 27.2875 56.0592C27.481 55.9835 27.6728 55.903 27.8615 55.8161C28.0501 55.7292 28.2372 55.6374 28.4226 55.5392C28.5032 55.4973 28.5822 55.4539 28.6628 55.4104C29.2175 55.1061 29.7495 54.7648 30.259 54.3978C30.7701 54.0291 31.2603 53.6331 31.7359 53.2177C31.8036 53.1581 31.8714 53.0986 31.9391 53.0374C31.9891 52.9923 32.0374 52.9472 32.089 52.9006C32.3937 52.622 32.6936 52.3355 32.9855 52.0425C33.0983 51.9282 33.2096 51.8139 33.3208 51.6963C33.6868 51.3132 34.0432 50.922 34.3898 50.5211C34.5978 50.2812 34.801 50.0365 35.0009 49.7902C35.0251 49.7612 35.0493 49.7306 35.0734 49.7001C35.2105 49.5294 35.3459 49.3571 35.4814 49.1833C35.9054 48.6359 36.3133 48.0773 36.7067 47.5074C36.9196 47.1983 37.1276 46.8875 37.3323 46.5736C37.4468 46.3965 37.5597 46.2194 37.6709 46.0423C37.8241 45.7993 37.974 45.5529 38.1224 45.3066C37.4371 45.2905 36.7535 45.2825 36.0683 45.2825Z" fill="#F1ECE2"/>
        <path fill-rule="evenodd" clip-rule="evenodd" d="M31.9947 45.3807C31.6513 45.3968 31.3079 45.4161 30.9661 45.4371C30.5904 45.9683 30.2018 46.4915 29.7955 47.0019C29.3973 47.5042 28.9893 47.9968 28.5605 48.475C28.317 48.7454 28.0719 49.0143 27.8204 49.2783C27.643 49.465 27.4625 49.6502 27.277 49.8305C26.5402 50.5501 25.7679 51.2295 24.9376 51.8429C24.7989 51.9443 24.6602 52.0441 24.5183 52.1423C24.0524 52.4659 23.5703 52.7654 23.0689 53.0342C22.7061 53.2306 22.332 53.4045 21.9531 53.5639C21.9563 53.5816 21.9531 53.6009 21.9612 53.6186C22.0144 53.7651 22.0708 53.9084 22.1321 54.0517C22.1918 54.195 22.2562 54.335 22.324 54.4735C22.4594 54.7504 22.611 55.0208 22.7754 55.2849L22.7786 55.2881C22.7899 55.3042 22.8093 55.3187 22.8238 55.3332C22.8512 55.3251 22.877 55.3138 22.9044 55.309C23.3994 55.2269 23.8799 55.0868 24.3523 54.9146C25.281 54.5749 26.1436 54.1048 26.9659 53.5607C27.4125 53.266 27.843 52.9489 28.259 52.6156C28.7926 52.189 29.3037 51.7366 29.7987 51.2649C30.3647 50.724 30.9016 50.1573 31.4175 49.5697C31.6223 49.3379 31.8222 49.1028 32.0205 48.8645C32.9621 47.7296 33.8247 46.535 34.6244 45.297C33.7473 45.3131 32.8686 45.3389 31.9931 45.3823L31.9947 45.3807Z" fill="#FDBF41"/>
        <path fill-rule="evenodd" clip-rule="evenodd" d="M24.2254 48.7969C24.2609 48.8033 24.2948 48.8082 24.3286 48.8146C23.6563 49.4634 22.9501 50.0719 22.1971 50.629C21.923 50.8318 21.6489 51.0347 21.3522 51.2069C21.2974 50.9703 21.2732 50.7288 21.2458 50.4873C21.1523 49.7178 21.1168 48.945 21.1152 48.1722C21.3023 48.2173 21.4893 48.2608 21.6779 48.3043C22.2277 48.4298 22.7792 48.5409 23.3322 48.6423C23.6305 48.6971 23.9288 48.7486 24.227 48.7985L24.2254 48.7969Z" fill="#F1ECE2"/>
        <path fill-rule="evenodd" clip-rule="evenodd" d="M27.3046 45.751C27.2256 45.7607 27.145 45.7671 27.0644 45.7751C26.2711 46.7829 25.4247 47.7441 24.5056 48.644C24.4476 48.702 24.3879 48.7583 24.3299 48.8146C24.3573 48.8195 24.3847 48.8243 24.4105 48.8291C24.3831 48.8243 24.3573 48.8195 24.3299 48.8163C23.6575 49.4651 22.9513 50.0736 22.1984 50.6306C21.9243 50.8335 21.6502 51.0363 21.3535 51.2086C21.3567 51.2408 21.3584 51.2746 21.3616 51.3068C21.3616 51.3164 21.3616 51.3245 21.3648 51.3342C21.3713 51.3712 21.3793 51.4082 21.3858 51.4452C21.3906 51.4758 21.3954 51.5048 21.4019 51.5354C21.4164 51.6094 21.4309 51.6851 21.4454 51.7608C21.5309 52.1858 21.6324 52.606 21.7598 53.0197C21.8179 53.2049 21.8646 53.3948 21.9581 53.5687C22.337 53.4093 22.7111 53.2355 23.0739 53.039C23.5753 52.7686 24.0574 52.4691 24.5234 52.1472C24.6652 52.0506 24.8039 51.9507 24.9426 51.8477C25.7729 51.2359 26.5452 50.555 27.2821 49.8353C27.4675 49.655 27.6464 49.4699 27.8254 49.2831C28.0769 49.0191 28.322 48.7503 28.5655 48.4798C28.9927 48.0016 29.4023 47.509 29.8005 47.0067C30.2052 46.4948 30.5954 45.9732 30.9711 45.4419C29.7489 45.516 28.5284 45.619 27.3095 45.7542L27.3046 45.751Z" fill="#FF1100"/>
        <path fill-rule="evenodd" clip-rule="evenodd" d="M23.3301 48.6407C23.6284 48.6955 23.9266 48.747 24.2249 48.7969C23.9266 48.747 23.6267 48.6955 23.3301 48.6407Z" fill="#FF1100"/>
        <path fill-rule="evenodd" clip-rule="evenodd" d="M26.5407 45.8492C26.7133 45.8122 26.889 45.7929 27.0647 45.7751C26.2715 46.7829 25.425 47.7441 24.506 48.644C24.4479 48.702 24.3883 48.7583 24.3302 48.8147L24.227 48.7986C23.9288 48.7486 23.6305 48.6971 23.3322 48.6424C22.7792 48.541 22.2261 48.4299 21.6779 48.3043C21.4909 48.2608 21.3023 48.2174 21.1152 48.1723C21.1152 47.8809 21.1185 47.5879 21.1265 47.2949C21.1314 47.121 21.1394 46.9488 21.1491 46.7765C21.786 46.6252 22.4277 46.4916 23.071 46.3692C24.1706 46.1615 25.2767 45.9925 26.3859 45.8556C26.4037 45.854 26.4214 45.8508 26.4392 45.8492C26.4601 45.846 26.4811 45.8444 26.502 45.846C26.5149 45.846 26.5278 45.8492 26.5407 45.8524V45.8492Z" fill="#FDBF41"/>
        <path fill-rule="evenodd" clip-rule="evenodd" d="M46.1543 31.7786C46.796 31.8574 47.4393 31.9347 48.081 32.0136C48.0778 32.02 48.073 32.0265 48.0665 32.0329C47.6683 31.9846 47.2684 31.9379 46.8702 31.8864C46.7541 31.8719 46.638 31.8623 46.5219 31.8494C46.4058 31.8365 46.2897 31.8236 46.1753 31.8011C46.1688 31.7931 46.1624 31.7866 46.1543 31.7802V31.7786Z" fill="#007FFF"/>
        <path fill-rule="evenodd" clip-rule="evenodd" d="M61.4558 46.6477V44.0026C61.3994 43.7563 61.322 43.5164 61.185 43.3007C60.9641 42.953 60.7013 42.6422 60.3723 42.3879C60.0289 42.1222 59.6774 41.8727 59.2985 41.6602C58.7777 41.3688 58.236 41.1225 57.6926 40.8794C57.5959 40.8359 57.4959 40.815 57.3992 40.7764C56.1706 40.2966 54.9065 39.936 53.6263 39.6253C52.8073 39.4256 51.9818 39.255 51.153 39.1004C50.2227 38.9266 49.2876 38.7769 48.3508 38.6481C47.7042 38.5595 47.0577 38.479 46.4095 38.4066C46.1209 38.3744 45.8323 38.3438 45.5437 38.3148C44.7279 38.2359 43.9104 38.1619 43.093 38.1039C42.6109 38.0685 42.1272 38.0379 41.6451 38.0105C41.2356 37.988 40.8244 37.9671 40.4133 37.9478C39.7667 37.9188 39.1218 37.8962 38.4753 37.8817C38.4285 37.8817 38.3817 37.8785 38.335 37.8785C37.3144 37.856 36.2922 37.8495 35.2716 37.8592H35.2216C34.1703 37.8689 33.1191 37.893 32.0695 37.9365C32.0066 37.9381 31.9437 37.9429 31.8808 37.9445C30.6377 37.9977 29.3978 38.0749 28.1579 38.1796C26.3376 38.3325 24.5238 38.5402 22.7196 38.8235C22.676 38.83 22.6341 38.838 22.5906 38.8445C22.5212 39.0892 22.4584 39.3371 22.3713 39.577C22.31 39.8217 22.2488 40.0664 22.1859 40.3095C22.0198 40.9583 21.8699 41.6103 21.7393 42.2671C21.8312 42.251 21.9231 42.2365 22.015 42.2204C22.1359 42.1995 22.2568 42.1802 22.3761 42.1593L22.913 42.0723C23.5596 41.9725 24.2094 41.8824 24.8575 41.8003C25.5073 41.7182 26.157 41.6457 26.8084 41.5813C27.2421 41.5378 27.6775 41.4976 28.1128 41.4606C28.7706 41.4058 29.4301 41.3591 30.0895 41.3173C30.7103 41.2786 31.331 41.2481 31.9518 41.2223C32.1114 41.2159 32.271 41.2078 32.4306 41.2014C32.6676 41.1917 32.9063 41.1853 33.1433 41.1772C33.2965 41.1724 33.4496 41.1692 33.6044 41.166C34.1639 41.1515 34.7234 41.1434 35.2828 41.1386C35.4941 41.1386 35.7037 41.1354 35.9149 41.1354C36.276 41.1354 36.6372 41.1354 36.9968 41.1386C37.1274 41.1386 37.258 41.1402 37.3886 41.1434L37.8094 41.1482C38.1915 41.1547 38.572 41.1643 38.9541 41.1756C39.3362 41.1869 39.7168 41.2014 40.0989 41.2159C40.1618 41.2175 40.2246 41.2223 40.2875 41.2239C40.6971 41.2416 41.1066 41.2625 41.5145 41.2835C41.8289 41.3012 42.1433 41.3205 42.4577 41.3398C42.9285 41.3704 43.4009 41.4042 43.8717 41.4429C44.3055 41.4783 44.7392 41.5185 45.1745 41.562C45.189 41.562 45.2051 41.5652 45.2196 41.5668C45.5308 41.5974 45.842 41.628 46.1532 41.6602C46.6514 41.7101 47.1496 41.7697 47.6478 41.8357C48.1444 41.9017 48.641 41.9725 49.1376 42.0466C49.344 42.0772 49.5504 42.1094 49.7551 42.1416C50.3727 42.2414 50.9886 42.3508 51.6013 42.4716C51.9624 42.5424 52.322 42.6165 52.6815 42.6938C53.0411 42.771 53.399 42.8547 53.7569 42.9417C54.3003 43.0753 54.8404 43.2186 55.3741 43.3747C56.0868 43.584 56.793 43.8191 57.4847 44.0944C57.6588 44.162 57.8297 44.2344 58.0022 44.3069C58.2634 44.4196 58.5198 44.5435 58.7745 44.6691C58.8374 44.6997 58.9003 44.7303 58.9632 44.7625C59.0115 44.7866 59.0615 44.8108 59.1099 44.8349C59.1744 44.8671 59.2389 44.8993 59.3018 44.9347C59.3824 44.9782 59.4614 45.0249 59.5355 45.0764C59.8225 45.2744 60.1176 45.4612 60.3836 45.6866C60.4449 45.7397 60.5046 45.7928 60.5626 45.8492C60.6319 45.9071 60.698 45.9699 60.7609 46.0327C60.8657 46.1373 60.9625 46.25 61.0479 46.3676C61.0898 46.4255 61.1285 46.4851 61.1656 46.5463C61.1979 46.5994 61.2269 46.6525 61.2543 46.7073C61.2817 46.762 61.3075 46.8183 61.3301 46.8779C61.3543 46.9359 61.3752 46.9954 61.3946 47.055C61.4075 47.0969 61.422 47.1403 61.4349 47.1822C61.4478 47.224 61.4349 47.1854 61.4365 47.187V47.1822C61.4703 47.0035 61.4494 46.8232 61.451 46.6429L61.4558 46.6477Z" fill="#F1ECE2"/>
        <path fill-rule="evenodd" clip-rule="evenodd" d="M61.4657 43.6549C61.4673 42.9868 61.4673 42.3203 61.4657 41.6522C61.4657 41.3447 61.4625 41.0356 61.4609 40.7281C61.4077 40.5542 61.3706 40.3755 61.2916 40.2097C61.09 39.7927 60.7885 39.4579 60.4403 39.1584C60.0597 38.83 59.6389 38.5579 59.1972 38.318C58.5571 37.9671 57.8928 37.6676 57.2075 37.4149C56.4143 37.1219 55.6097 36.8627 54.7939 36.6405C54.1699 36.4715 53.5427 36.3153 52.9139 36.172C52.1964 36.0094 51.4757 35.8662 50.7518 35.739C50.0004 35.6086 49.2458 35.483 48.4897 35.3784C48.1317 35.3285 47.7722 35.2818 47.4126 35.2367C46.6097 35.1337 45.8051 35.0435 44.999 34.9727C44.849 34.9582 44.7007 34.9372 44.5507 34.926C43.9413 34.8793 43.3318 34.8342 42.724 34.7907C42.6369 34.7843 42.5498 34.7779 42.4628 34.7714C42.0565 34.7424 41.6501 34.7135 41.2438 34.6925C40.715 34.6668 40.1861 34.6475 39.6573 34.6281H39.6428C39.0898 34.6088 38.5383 34.5879 37.9853 34.5782C37.4984 34.5702 37.0115 34.5654 36.5229 34.5637C36.3085 34.5637 36.0941 34.5621 35.878 34.5621C35.0235 34.5621 34.1705 34.575 33.3176 34.5992H33.2805C32.2793 34.6281 31.2764 34.6684 30.2768 34.7328C29.5077 34.7811 28.7386 34.8245 27.9711 34.8889C27.6599 34.9147 27.3504 34.9533 27.0408 34.9839C25.9589 35.0918 24.8803 35.2174 23.8049 35.3687C23.792 35.3703 23.7807 35.3719 23.7678 35.3735C23.3373 36.486 22.9503 37.6129 22.6101 38.7576C22.6021 38.7865 22.594 38.8139 22.5859 38.8429C22.6279 38.8364 22.6714 38.8284 22.7149 38.8219C24.5191 38.5386 26.333 38.3293 28.1533 38.178C29.3932 38.075 30.6331 37.9961 31.8762 37.9429C31.9391 37.9397 32.002 37.9365 32.0648 37.9349C33.1145 37.8914 34.1657 37.8673 35.2169 37.8576H35.2669C36.2891 37.8496 37.3097 37.856 38.3304 37.8769C38.3771 37.8769 38.4239 37.8802 38.4706 37.8802C39.1172 37.8946 39.7621 37.9172 40.4087 37.9462C40.8198 37.9655 41.2293 37.9864 41.6405 38.0089C42.1226 38.0363 42.6063 38.0669 43.0883 38.1023C43.9058 38.1619 44.7233 38.2343 45.5391 38.3132C45.8277 38.3422 46.1163 38.3728 46.4049 38.405C47.0531 38.4774 47.6996 38.5579 48.3462 38.6465C49.2829 38.7753 50.2181 38.925 51.1484 39.0989C51.9771 39.2534 52.8026 39.4241 53.6217 39.6237C54.9019 39.9344 56.166 40.295 57.3946 40.7748C57.4913 40.8134 57.5913 40.8343 57.688 40.8778C58.2314 41.1225 58.7731 41.3672 59.2939 41.6586C59.6728 41.8711 60.0243 42.1206 60.3677 42.3863C60.6966 42.6406 60.9594 42.9514 61.1803 43.2991C61.3174 43.5148 61.3931 43.7547 61.4512 44.001C61.4738 43.8851 61.4609 43.7676 61.4609 43.6517L61.4657 43.6549Z" fill="#FDBF41"/>
        <path fill-rule="evenodd" clip-rule="evenodd" d="M42.511 18.4148C42.956 19.1086 43.2785 19.8589 43.522 20.6445C43.5978 20.8876 43.6655 21.1323 43.7267 21.3786C43.8283 21.7891 43.9073 22.2061 43.9702 22.6247C43.9879 22.747 44.0057 22.8694 44.0218 22.9933C44.0524 23.2397 44.0798 23.486 44.1024 23.7323C44.1121 23.8563 44.1218 23.9786 44.1314 24.1026C44.1766 24.7755 44.1959 25.4485 44.1782 26.123C44.1588 26.8281 44.1169 27.5333 44.046 28.2368C43.975 28.9355 43.8783 29.631 43.7622 30.3216C43.6929 30.737 43.6155 31.1507 43.5316 31.5613C42.8641 31.5081 42.1966 31.4631 41.5275 31.4309C41.2067 31.4164 40.8842 31.3987 40.5617 31.3826C40.7794 30.4488 40.9632 29.5086 41.1067 28.5588C41.2647 27.5075 41.3776 26.453 41.4195 25.3921C41.4534 24.4906 41.4485 23.5874 41.376 22.6859C41.3147 21.934 41.2131 21.1902 41.0519 20.4529C40.8697 19.6238 40.6133 18.8189 40.2457 18.0509C40.1006 17.7467 39.9297 17.4553 39.7588 17.1655C39.8991 17.1204 40.0458 17.1156 40.1893 17.1011C40.2651 17.093 40.3408 17.0866 40.415 17.0818C40.4795 17.0785 40.544 17.0753 40.6085 17.0737C40.7133 17.0721 40.8181 17.0721 40.9229 17.0737C40.9954 17.0753 41.0696 17.0785 41.1422 17.0818C41.1986 17.085 41.255 17.0882 41.3115 17.093C41.3211 17.093 41.3308 17.0946 41.3389 17.0963C41.3566 17.0995 41.3727 17.1043 41.3889 17.1107C41.405 17.1172 41.4195 17.1252 41.434 17.1349C41.455 17.1478 41.4759 17.1655 41.4953 17.1832C41.5453 17.2283 41.5936 17.275 41.6404 17.3216C41.7355 17.415 41.8274 17.5132 41.9145 17.613C42.1354 17.8626 42.3337 18.1282 42.5159 18.4115L42.511 18.4148Z" fill="#F1ECE2"/>
        <path fill-rule="evenodd" clip-rule="evenodd" d="M41.0468 20.4529C41.208 21.1886 41.3096 21.934 41.3708 22.6858C41.445 23.5874 41.4499 24.4905 41.4144 25.3921C41.3741 26.453 41.2612 27.5075 41.1016 28.5588C40.9581 29.5086 40.7743 30.4504 40.5566 31.3825C40.3132 31.3713 40.0681 31.3584 39.8246 31.3487C39.2668 31.3278 38.7105 31.3149 38.1526 31.3037C37.9446 31.2988 37.7367 31.2956 37.5303 31.2924C37.7334 30.5277 37.9124 29.7565 38.0656 28.9806C38.1817 28.3994 38.2816 27.815 38.3703 27.229C38.4283 26.8362 38.4799 26.4433 38.5251 26.0489C38.5718 25.6368 38.6089 25.223 38.6347 24.8077C38.6621 24.365 38.6799 23.9206 38.6895 23.4779C38.7008 22.8838 38.6815 22.2914 38.6379 21.6989C38.6089 21.3077 38.5718 20.9181 38.5219 20.5285C38.4541 19.9957 38.3574 19.4692 38.23 18.9476C38.1285 18.5307 38.0124 18.1153 37.8576 17.7128C37.964 17.6452 38.0865 17.6114 38.2042 17.5679C38.4429 17.4794 38.6831 17.4021 38.9282 17.3345C39.1732 17.2685 39.4199 17.2121 39.6714 17.1703C39.6892 17.1671 39.7053 17.1622 39.723 17.1622C39.7343 17.1622 39.744 17.1622 39.7537 17.1655C39.9246 17.4552 40.0955 17.745 40.2406 18.0509C40.6082 18.8188 40.8646 19.6238 41.0468 20.4529Z" fill="#FDBF41"/>
        <path fill-rule="evenodd" clip-rule="evenodd" d="M61.452 50.3617C61.4537 50.3199 61.4569 50.278 61.4569 50.2362C61.4569 49.5471 61.4585 48.8565 61.4585 48.1674C61.4585 47.8696 61.4537 47.5718 61.452 47.2739C61.452 47.2562 61.4601 47.2369 61.4585 47.2192C61.4537 47.2079 61.4472 47.1999 61.4424 47.1902V47.1934C61.4424 47.1918 61.4424 47.1902 61.4408 47.1886C61.4279 47.1451 61.4134 47.1033 61.4005 47.0598C61.3811 46.9986 61.3585 46.9391 61.336 46.8827C61.3134 46.8248 61.2876 46.7684 61.2602 46.7121C61.2328 46.6573 61.2021 46.6026 61.1715 46.5511C61.1344 46.4899 61.0957 46.4303 61.0538 46.3724C60.9683 46.2532 60.8732 46.1422 60.7668 46.0375C60.7039 45.9747 60.6378 45.9136 60.5685 45.854C60.5104 45.796 60.4508 45.7429 60.3895 45.6914C60.1235 45.466 59.8284 45.2792 59.5414 45.0812C59.4657 45.0297 59.3866 44.983 59.3076 44.9396C59.2448 44.9058 59.1803 44.8719 59.1158 44.8397C59.0674 44.8156 59.0174 44.7914 58.9691 44.7673C58.9062 44.7351 58.8433 44.7045 58.7804 44.6739C58.5257 44.5483 58.2693 44.4244 58.0081 44.3117C57.8356 44.2392 57.6647 44.1668 57.4905 44.0992C56.7972 43.8255 56.0927 43.5888 55.38 43.3796C54.8447 43.2218 54.3046 43.0785 53.7628 42.9465C53.4049 42.8596 53.047 42.7758 52.6874 42.6986C52.3279 42.6213 51.9683 42.5472 51.6071 42.4764C50.9928 42.3557 50.3769 42.2446 49.761 42.1464C49.5547 42.1142 49.3499 42.082 49.1435 42.0514C48.6469 41.9773 48.1519 41.9065 47.6537 41.8405C47.1571 41.7745 46.6589 41.7149 46.1591 41.665C45.8479 41.6344 45.5367 41.6022 45.2255 41.5716C45.211 41.5716 45.1949 41.5684 45.1804 41.5668C44.7467 41.5233 44.313 41.4831 43.8776 41.4477C43.4068 41.409 42.9344 41.3768 42.4636 41.3446C42.1492 41.3237 41.8348 41.3044 41.5204 41.2883C41.1109 41.2657 40.7013 41.2448 40.2934 41.2287C40.2305 41.2255 40.1677 41.2223 40.1048 41.2207C39.7227 41.2046 39.3421 41.1917 38.96 41.1804C38.5779 41.1692 38.1974 41.1595 37.8153 41.1531L37.3944 41.1482L37.0026 41.1434C36.6415 41.1402 36.2803 41.1386 35.9208 41.1402C35.7096 41.1402 35.4983 41.1418 35.2887 41.1434C34.7293 41.1482 34.1698 41.1563 33.6103 41.1708C33.4571 41.174 33.304 41.1788 33.1492 41.182C32.9122 41.1885 32.6735 41.1965 32.4365 41.2062C32.2769 41.2126 32.1173 41.2207 31.9577 41.2271C31.3369 41.2529 30.7162 41.2851 30.0954 41.3221C29.436 41.364 28.7765 41.409 28.1187 41.4654C27.6834 41.5024 27.248 41.5427 26.8143 41.5861C26.1629 41.6505 25.5132 41.723 24.8634 41.8051C24.2136 41.8872 23.5655 41.9773 22.9189 42.0771C22.74 42.1045 22.561 42.1335 22.382 42.1641C22.2611 42.1834 22.1418 42.2043 22.0209 42.2253C21.929 42.2414 21.8371 42.2558 21.7452 42.2719C21.8758 41.6151 22.0257 40.9631 22.1918 40.3143C22.2546 40.0696 22.3159 39.8265 22.3772 39.5818C22.4643 39.3419 22.5271 39.094 22.5965 38.8493C22.6045 38.8203 22.6126 38.7929 22.6206 38.764C22.9609 37.6193 23.3478 36.4908 23.7783 35.3799C24.0508 34.6748 24.341 33.9761 24.649 33.2838C24.8553 32.8202 25.0698 32.3581 25.2907 31.9025C26.0211 30.394 26.8321 28.9274 27.7317 27.5091C28.5718 26.1793 29.486 24.9043 30.4872 23.6904C30.5082 23.6662 30.5243 23.6373 30.5436 23.6115C30.8452 23.267 31.1418 22.9192 31.4498 22.5796C32.4526 21.4703 33.5329 20.4432 34.7293 19.5433C35.0243 19.3211 35.329 19.1118 35.6306 18.8977C35.658 18.8784 35.6918 18.8752 35.7241 18.8736C35.7386 18.8301 35.7789 18.8108 35.8127 18.7898C36.4303 18.3954 37.072 18.0444 37.7475 17.7611C37.7717 17.7514 37.7943 17.7386 37.8201 17.7305C37.8265 17.7289 37.8346 17.7273 37.8427 17.7257C37.8507 17.7257 37.8588 17.7225 37.8669 17.7225C37.9733 17.6549 38.0958 17.621 38.2135 17.5776C38.4521 17.489 38.6924 17.4118 38.9374 17.3441C39.1825 17.2781 39.4292 17.2218 39.6807 17.1799C39.6985 17.1767 39.7146 17.1719 39.7323 17.1719C39.7436 17.1719 39.7533 17.1719 39.763 17.1751C39.9032 17.13 40.05 17.1252 40.1935 17.1107C40.2692 17.1027 40.345 17.0962 40.4192 17.0914C40.4837 17.0882 40.5482 17.0849 40.6127 17.0833C40.7175 17.0817 40.8223 17.0817 40.9271 17.0833C40.9996 17.0849 41.0738 17.0882 41.1463 17.0914C41.2028 17.0946 41.2592 17.0978 41.3156 17.1027C41.3253 17.1027 41.335 17.1043 41.343 17.1059C41.3608 17.1091 41.3769 17.1139 41.393 17.1204C41.4092 17.1268 41.4237 17.1349 41.4382 17.1445C41.4591 17.1574 41.4801 17.1751 41.4994 17.1928C41.5494 17.2379 41.5978 17.2846 41.6446 17.3313C41.7397 17.4246 41.8316 17.5228 41.9186 17.6227C42.1395 17.8722 42.3379 18.1378 42.52 18.4212C42.9651 19.115 43.2875 19.8653 43.531 20.6509C43.6068 20.894 43.6745 21.1387 43.7357 21.385C43.8373 21.7955 43.9163 22.2125 43.9792 22.6311C43.9969 22.7534 44.0147 22.8758 44.0308 22.9997C44.0614 23.2461 44.0888 23.4924 44.1114 23.7387C44.1211 23.8627 44.1308 23.985 44.1404 24.109C44.1856 24.7819 44.2049 25.4549 44.1872 26.1294C44.1678 26.8345 44.1259 27.5397 44.055 28.2432C43.984 28.9419 43.8873 29.6374 43.7712 30.328C43.7019 30.7434 43.6245 31.1571 43.5407 31.5677C43.6487 31.5757 43.7567 31.5838 43.8647 31.5934C44.6403 31.6578 45.4142 31.7351 46.1881 31.8059C46.1817 31.7979 46.1752 31.7914 46.1671 31.785C46.8088 31.8639 47.4522 31.9412 48.0939 32.0201C48.0907 32.0265 48.0858 32.0329 48.0794 32.0394C48.1181 32.0442 48.1568 32.0506 48.1955 32.0555C48.3244 31.4212 48.4405 30.7869 48.5389 30.1477C48.6259 29.5746 48.7033 28.9999 48.763 28.4235C48.8194 27.8842 48.8694 27.3449 48.8952 26.8023C48.9081 26.5415 48.9226 26.2791 48.9387 26.0183C48.9404 25.9845 48.9226 25.9394 48.9758 25.9249C48.9758 25.4388 48.9726 24.9509 48.971 24.4648C48.9452 24.4535 48.9436 24.4309 48.9404 24.4068C48.9339 24.3086 48.9226 24.212 48.9194 24.1138C48.9 23.407 48.8355 22.7051 48.7404 22.0064C48.6356 21.2321 48.4808 20.469 48.2664 19.7171C48.2132 19.5288 48.168 19.3388 48.0842 19.1601L48.0665 19.0957C48.0665 19.0957 48.06 19.0909 48.06 19.0877V19.0812C48.0552 19.0587 48.052 19.0362 48.0439 19.0136C47.7327 18.1169 47.3264 17.2669 46.7669 16.4941C46.2284 15.7487 45.5786 15.1257 44.7773 14.662C44.4774 14.4882 44.1517 14.3658 43.8438 14.2096C43.8164 14.1952 43.7809 14.1984 43.7486 14.1919C43.7212 14.1565 43.6777 14.1469 43.6406 14.1292C42.9135 13.8072 42.1879 13.4852 41.4591 13.1664C41.3656 13.1246 41.2802 13.0634 41.1754 13.0505C41.1576 13.0441 41.1399 13.0392 41.1222 13.0328C40.998 12.9926 40.8706 12.9636 40.7513 12.9072C40.74 12.904 40.7304 12.9008 40.7191 12.896C40.7142 12.8944 40.7078 12.8927 40.7029 12.8911H40.6997C40.6868 12.8992 40.6788 12.8927 40.6707 12.8815C40.4369 12.8219 40.2031 12.7768 39.9661 12.7446C39.7952 12.7205 39.6243 12.7028 39.4518 12.6931C39.3937 12.6899 39.3373 12.6883 39.2793 12.6867C39.1067 12.6818 38.9358 12.6835 38.7649 12.6915C38.5376 12.7012 38.3119 12.7221 38.0861 12.7527C37.6927 12.8074 37.3025 12.8895 36.9156 12.9958C36.8608 13.0119 36.8043 13.0264 36.7495 13.0441C36.0224 13.2598 35.329 13.5512 34.6599 13.8957C34.4374 14.01 34.2165 14.1308 33.9973 14.2579C33.7973 14.3722 33.6006 14.4898 33.4055 14.6137C33.341 14.654 33.2765 14.6958 33.2121 14.7377C33.1476 14.7796 33.0831 14.8214 33.0202 14.8649C32.8928 14.9502 32.7671 15.0371 32.6429 15.1273C32.5816 15.1724 32.5188 15.2175 32.4575 15.2625V15.2754C32.4575 15.2786 32.4543 15.2818 32.4526 15.2851C32.4478 15.2899 32.4414 15.2915 32.4317 15.2915H32.4301V15.2996C32.4301 15.306 32.4269 15.3092 32.4236 15.3108C32.4204 15.3124 32.4172 15.3124 32.4107 15.3108C32.4091 15.3108 32.4059 15.3108 32.4043 15.3076C32.1302 15.4992 31.8641 15.6988 31.6046 15.9065C31.4885 15.9983 31.374 16.0932 31.2611 16.1882C31.2434 16.2027 31.2257 16.2188 31.2079 16.2333C31.0918 16.3315 30.9758 16.4313 30.8613 16.5327V16.5408C30.8613 16.5488 30.8581 16.5537 30.8532 16.5585C30.8532 16.5585 30.85 16.5601 30.8484 16.5617C30.8452 16.5633 30.8403 16.5649 30.8355 16.5649C30.8323 16.5714 30.8274 16.5778 30.8226 16.5827C30.8161 16.5891 30.8113 16.5955 30.8032 16.6004C30.7936 16.6068 30.7823 16.6132 30.7694 16.6148C30.7694 16.6293 30.7662 16.6374 30.7597 16.6406C30.75 16.647 30.7323 16.6422 30.7194 16.6438C30.6759 16.6889 30.6307 16.734 30.5872 16.7775C30.584 16.7807 30.5823 16.7839 30.5791 16.7855V16.7919C30.5791 16.7984 30.5759 16.8016 30.5727 16.8064H30.5711C30.5711 16.8064 30.5614 16.8113 30.5517 16.8113C30.513 16.8435 30.4711 16.8724 30.434 16.9062C30.4308 16.9095 30.4276 16.9111 30.4243 16.9143C30.2825 17.0479 30.139 17.1815 29.9987 17.3184C29.989 17.328 29.9793 17.3361 29.9713 17.3441C29.9277 17.3876 29.8826 17.4279 29.8374 17.4697C29.7246 17.5744 29.6085 17.6758 29.5005 17.7853C29.4424 17.8448 29.3828 17.9044 29.3247 17.9623C28.9894 18.302 28.6572 18.6449 28.3364 18.9991C27.9268 19.4515 27.5286 19.9119 27.1416 20.382C27.0868 20.4496 27.0304 20.5157 26.9756 20.5833C26.9675 20.5929 26.9578 20.6042 26.9514 20.6155C26.9401 20.6316 26.9288 20.6477 26.9175 20.6654C26.903 20.6879 26.8885 20.7105 26.874 20.7314C26.8627 20.7475 26.8514 20.762 26.8385 20.7781C26.8337 20.7829 26.8304 20.7877 26.8272 20.7909C26.8095 20.8103 26.7918 20.828 26.7708 20.8425C26.7708 20.8473 26.7692 20.8489 26.7676 20.8521C26.7676 20.8553 26.7676 20.8586 26.7643 20.8618C26.7643 20.8634 26.7611 20.865 26.7595 20.8666C26.7563 20.8682 26.7514 20.8698 26.7482 20.8714C26.7385 20.9165 26.7015 20.9391 26.6708 20.968C26.6692 20.968 26.6676 20.9713 26.666 20.9729C26.6563 20.9809 26.6499 20.9906 26.6434 21.0002C26.6402 21.0051 26.637 21.0099 26.6354 21.0163C26.6337 21.0228 26.6305 21.0276 26.6289 21.034V21.0421C26.6289 21.0501 26.6257 21.055 26.6192 21.0598C26.6192 21.0598 26.616 21.0598 26.616 21.0614H26.6096H26.6031C26.5322 21.15 26.4596 21.2385 26.3887 21.327C26.3854 21.3319 26.3806 21.3367 26.3774 21.3415C26.379 21.3528 26.379 21.3625 26.3774 21.3721C26.3774 21.3802 26.3725 21.385 26.3693 21.3914C26.3693 21.3931 26.3661 21.3963 26.3661 21.3979C26.3613 21.4027 26.3548 21.4092 26.3484 21.4124C26.3403 21.4172 26.3306 21.4204 26.3209 21.4236C26.3097 21.4365 26.2984 21.4478 26.2871 21.4607C26.2823 21.4655 26.279 21.4703 26.2758 21.4736C26.2661 21.4832 26.2581 21.4945 26.25 21.5041C26.0678 21.7488 25.8856 21.9952 25.7034 22.2399C25.7034 22.2479 25.7002 22.2527 25.6954 22.2576C25.6954 22.2576 25.6938 22.2592 25.6921 22.2608C25.6889 22.264 25.6841 22.2656 25.6792 22.2656C25.5535 22.4427 25.4245 22.6182 25.3003 22.7969C25.2762 22.8323 25.252 22.8677 25.2278 22.9031C25.0424 23.1752 24.8682 23.4553 24.6812 23.7258C24.5877 23.861 24.499 23.9995 24.4103 24.1363C24.32 24.2732 24.2298 24.41 24.1314 24.5436C23.975 24.7578 23.8412 24.9912 23.7041 25.2182C23.6445 25.3164 23.5848 25.4146 23.5268 25.5128C22.8641 26.6108 22.2208 27.72 21.6726 28.8807C21.6404 28.9483 21.6033 29.0111 21.5662 29.0755C21.5291 29.1383 21.4904 29.2027 21.4582 29.2671C21.2711 29.6422 21.0889 30.0189 20.9116 30.3989C20.8455 30.5405 20.781 30.6822 20.7149 30.8255C20.6294 31.0106 20.5456 31.1974 20.4633 31.3841C20.3585 31.6208 20.2537 31.8591 20.1506 32.0989C20.107 32.1988 20.0651 32.3002 20.0232 32.4016C19.97 32.5272 19.9168 32.6527 19.8652 32.7799C19.6814 33.2259 19.504 33.6766 19.3315 34.1274C19.2815 34.2594 19.2315 34.3914 19.1832 34.5251C19.0655 34.8471 18.951 35.169 18.8365 35.4926C18.8091 35.5699 18.7817 35.6472 18.7543 35.7244C18.7333 35.784 18.7124 35.8452 18.693 35.9064C18.6398 36.0593 18.5898 36.2139 18.5414 36.3684C18.4818 36.5568 18.4237 36.7451 18.3657 36.9335C18.3238 37.0687 18.2819 37.2023 18.2383 37.3376C18.14 37.6386 18.0255 37.9365 17.9868 38.2536C17.9852 38.2697 17.9658 38.2842 17.9562 38.2987C17.9078 38.4307 17.8788 38.5659 17.8465 38.7012C17.8304 38.7656 17.8111 38.83 17.7917 38.8944C17.7724 38.9588 17.753 39.0231 17.7353 39.0875C17.6611 39.3644 17.5886 39.643 17.5208 39.9215C17.458 40.1726 17.3983 40.427 17.3403 40.6797C17.2758 40.9647 17.2145 41.2496 17.1548 41.5346C17.1032 41.7841 17.0533 42.0353 17.0065 42.2864C16.9694 42.4861 16.9323 42.6841 16.8985 42.8837C16.8678 43.0592 16.8404 43.2347 16.8114 43.4101C16.7759 43.6339 16.7421 43.8561 16.7115 44.0799C16.684 44.2811 16.6582 44.4807 16.6324 44.682C16.5647 45.2342 16.5099 45.7864 16.4664 46.3418C16.4551 46.5012 16.4438 46.6589 16.4357 46.8183C16.4261 46.9777 16.418 47.1355 16.4116 47.2949C16.3987 47.612 16.389 47.9308 16.3793 48.2479C16.3777 48.3204 16.3777 48.3928 16.3761 48.4653V48.5313C16.3745 48.9386 16.3906 49.3443 16.4035 49.7484C16.4035 49.7661 16.4067 49.7854 16.4067 49.8031C16.4099 49.8755 16.4132 49.948 16.418 50.0204C16.4325 50.3134 16.4567 50.6064 16.4873 50.8994C16.5083 51.0975 16.5309 51.2971 16.5567 51.4951C16.5599 51.5241 16.5647 51.5514 16.568 51.5804C16.6228 51.9829 16.6857 52.3838 16.7647 52.7814C16.9114 53.5252 17.1065 54.2561 17.3741 54.9661C17.379 54.9773 17.3838 54.9902 17.3886 55.0031C17.5886 55.5279 17.8207 56.0383 18.1061 56.5245C18.5753 57.3246 19.1477 58.0329 19.8781 58.598C19.9651 58.6656 20.0538 58.73 20.1441 58.7944C20.2312 58.854 20.3247 58.9087 20.415 58.9635C20.4311 58.9747 20.4505 58.9828 20.4682 58.9908C20.4811 58.9973 20.494 59.0021 20.5069 59.0085C20.5295 59.0198 20.5504 59.0343 20.5649 59.0552C20.5698 59.0617 20.5746 59.0713 20.5794 59.081V59.0778C20.6036 59.0745 20.6246 59.0794 20.6359 59.1051H20.6375C20.6601 59.1051 20.681 59.1116 20.6923 59.1325C20.6987 59.1325 20.7036 59.1325 20.7084 59.1341H20.71C20.7245 59.1373 20.7374 59.1438 20.7471 59.1583V59.1599H20.752H20.7616C20.7649 59.1599 20.7665 59.1615 20.7713 59.1615C20.7729 59.1615 20.7761 59.1615 20.7778 59.1631C20.781 59.1631 20.7842 59.1663 20.7874 59.1679C20.7874 59.1679 20.7907 59.1679 20.7923 59.1695C20.7955 59.1727 20.7987 59.176 20.8019 59.1792H20.8036C20.8342 59.2114 20.8761 59.2194 20.9148 59.2371C21.7194 59.5929 22.5255 59.9487 23.3301 60.3045C23.7283 60.48 24.1233 60.6651 24.5442 60.781C24.965 60.897 25.3922 60.9758 25.8292 60.9936H26.0469H26.6998C26.9111 60.9871 27.1207 60.9597 27.3287 60.9275C28.1751 60.8004 28.9877 60.5508 29.773 60.2144C31.2112 59.5978 32.5091 58.7558 33.7264 57.7818C33.994 57.5677 34.2552 57.3471 34.5148 57.1233C35.4193 57.1394 36.3222 57.1443 37.2268 57.1346C38.0877 57.1249 38.9503 57.1105 39.8113 57.0766C39.8533 57.0525 39.8984 57.0525 39.9435 57.0702H39.9822C40.0338 57.0461 40.087 57.0477 40.1402 57.0638H40.1789C40.2096 57.0444 40.2418 57.0412 40.2741 57.0477H40.2773H40.2789C40.2902 57.0509 40.2999 57.0541 40.3095 57.0573H40.3482C40.3692 57.0445 40.3902 57.0396 40.4111 57.038C40.4337 57.038 40.4563 57.0428 40.4804 57.0493H40.5191C40.5337 57.0412 40.5482 57.0364 40.5627 57.0332C40.5917 57.0267 40.6223 57.03 40.653 57.0412H40.6901C40.6901 57.0412 40.6933 57.0412 40.6949 57.0396C40.7368 57.0187 40.7803 57.0187 40.8223 57.0348H40.8593C40.9029 57.0074 40.9464 57.0106 40.9932 57.0267H41.0303C41.0738 57.001 41.1189 57.0042 41.1641 57.0187H41.2012C41.2108 57.0122 41.2189 57.009 41.227 57.0058C41.2415 57.001 41.2544 57.001 41.2689 57.001C41.2818 57.001 41.2963 57.0042 41.3092 57.0106C41.5059 57.001 41.701 56.9945 41.8977 56.9833C43.4036 56.8947 44.9047 56.7756 46.4042 56.6098C48.6808 56.357 50.9429 56.0173 53.1776 55.5086C54.6996 55.1625 56.2007 54.7471 57.6518 54.1627C58.4305 53.8488 59.1867 53.4898 59.8865 53.0197C60.3073 52.7363 60.6975 52.4176 61.0103 52.0103C61.207 51.7511 61.3666 51.4726 61.4279 51.1474C61.452 51.1216 61.4617 51.091 61.4633 51.0588C61.4778 50.8254 61.4859 50.5936 61.4649 50.3601L61.452 50.3617ZM41.2415 45.437C40.8223 45.4113 40.4047 45.3887 39.9855 45.371C40.4047 45.3903 40.8223 45.4129 41.2415 45.437ZM31.9432 53.0374C31.8754 53.097 31.8077 53.1581 31.74 53.2177C31.2644 53.6347 30.7742 54.0291 30.2631 54.3978C29.752 54.7648 29.2215 55.1061 28.6669 55.4104C28.5879 55.4539 28.5073 55.4973 28.4267 55.5392C28.2412 55.6358 28.0542 55.7275 27.8656 55.8161C27.6769 55.903 27.4851 55.9835 27.2916 56.0592C26.9046 56.2105 26.508 56.3361 26.0984 56.4327C25.9211 56.4745 25.7437 56.51 25.5664 56.5373C25.5035 56.547 25.4406 56.5566 25.3793 56.5663C25.1375 56.5985 24.8956 56.6178 24.6522 56.6243C24.5716 56.6259 24.4893 56.6275 24.4087 56.6259C24.3265 56.6259 24.2459 56.6227 24.1637 56.6194C24.1282 56.6178 24.0943 56.613 24.0588 56.6098C24.025 56.6066 23.9895 56.6017 23.954 56.5985C23.9089 56.5953 23.875 56.576 23.8412 56.547C23.7444 56.4601 23.6525 56.3699 23.5623 56.2765C23.4284 56.1381 23.3011 55.9932 23.1817 55.8435C23.1027 55.7436 23.0253 55.6406 22.9512 55.5344C22.9141 55.4812 22.8786 55.4281 22.8432 55.375C22.8399 55.3701 22.8383 55.3653 22.8367 55.3605C22.8351 55.3524 22.8319 55.3428 22.8303 55.3347C22.8157 55.3202 22.7964 55.3057 22.7851 55.2897L22.7819 55.2864C22.6158 55.024 22.4659 54.7536 22.3304 54.475C22.2627 54.335 22.1982 54.1965 22.1386 54.0532C22.0773 53.9116 22.0209 53.7667 21.9677 53.6202C21.9612 53.6025 21.9628 53.5848 21.9596 53.5654C21.8661 53.3916 21.8193 53.2016 21.7613 53.0165C21.6323 52.6027 21.5307 52.1825 21.4469 51.7575C21.4324 51.6818 21.4178 51.6078 21.4033 51.5321C21.3969 51.5015 21.3937 51.4726 21.3872 51.442C21.3808 51.4049 21.3727 51.3679 21.3663 51.3309C21.3663 51.3212 21.3663 51.3132 21.363 51.3035C21.3598 51.2713 21.3582 51.2375 21.355 51.2053C21.3001 50.9687 21.276 50.7272 21.2486 50.4857C21.155 49.7162 21.1196 48.9434 21.118 48.1706C21.118 47.8792 21.1212 47.5862 21.1292 47.2932C21.1341 47.1194 21.1421 46.9471 21.1518 46.7749C21.7887 46.6235 22.4304 46.4899 23.0737 46.3675C24.1733 46.1599 25.2794 45.9908 26.3887 45.854C26.4064 45.8524 26.4241 45.8492 26.4419 45.8475C26.4628 45.8443 26.4838 45.8427 26.5048 45.8443C26.5177 45.8443 26.5306 45.8475 26.5435 45.8508C26.716 45.8137 26.8917 45.7944 27.0675 45.7767C27.1481 45.7687 27.2287 45.7606 27.3077 45.7526C28.5266 45.6173 29.7472 45.5143 30.9693 45.4402C31.3127 45.4193 31.6562 45.4 31.998 45.3839C32.8751 45.342 33.7522 45.3147 34.6293 45.2986C35.1098 45.2889 35.5902 45.2841 36.0707 45.2841C36.756 45.2841 37.4412 45.2921 38.1248 45.3082C37.9765 45.5545 37.8265 45.8009 37.6734 46.044C37.5621 46.2227 37.4493 46.3997 37.3348 46.5752C37.13 46.8892 36.922 47.1999 36.7092 47.509C36.3158 48.0789 35.9079 48.6375 35.4838 49.1849C35.35 49.3588 35.2146 49.531 35.0759 49.7017C35.0517 49.7323 35.0275 49.7628 35.0034 49.7918C34.8034 50.0397 34.6003 50.2828 34.3923 50.5227C34.0456 50.9236 33.6893 51.3148 33.3233 51.6979C33.2121 51.8139 33.1008 51.9298 32.9879 52.0441C32.6977 52.3371 32.3978 52.6236 32.0915 52.9022C32.185 52.907 32.2785 52.9102 32.372 52.915C32.2785 52.9102 32.185 52.907 32.0915 52.9022C32.0415 52.9472 31.9915 52.9939 31.9415 53.039L31.9432 53.0374ZM33.5748 52.9601C33.9295 52.9714 34.2859 52.981 34.6406 52.9875C34.2843 52.981 33.9295 52.9714 33.5748 52.9601ZM57.0214 49.1897C57.0117 49.2026 56.9956 49.2155 56.9698 49.2348C56.9359 49.2605 56.902 49.2879 56.8666 49.3121C56.8327 49.3378 56.7972 49.362 56.7618 49.3877C56.6957 49.4344 56.628 49.4795 56.5586 49.523C56.5506 49.5278 56.5425 49.5326 56.5344 49.5391C56.478 49.5745 56.4216 49.6099 56.3635 49.6437C56.2781 49.6952 56.1942 49.7435 56.1072 49.7918C55.5171 50.1202 54.8963 50.3843 54.2627 50.6177C53.6645 50.8366 53.0582 51.0282 52.4472 51.1989C51.5717 51.4436 50.6849 51.6464 49.7901 51.8235C48.921 51.9974 48.0487 52.1439 47.1732 52.2711C46.2977 52.3983 45.419 52.5045 44.5387 52.5963C44.2501 52.6269 43.9615 52.6542 43.6729 52.6816C43.094 52.7347 42.5152 52.7798 41.9364 52.8184C41.6462 52.8378 41.3559 52.8555 41.0673 52.8716C40.4176 52.9086 39.7678 52.936 39.118 52.9569C39.0003 52.9601 38.8826 52.9649 38.7633 52.9682C38.6553 52.9714 38.5473 52.9746 38.4376 52.9778C38.7037 52.6494 38.9697 52.3226 39.2132 51.9765C39.2486 51.933 39.2841 51.8895 39.318 51.8445C39.8387 51.1441 40.3386 50.431 40.819 49.7049C40.8448 49.6646 40.9787 49.4618 41.019 49.399C41.3237 48.9305 41.6188 48.4572 41.9074 47.9775C42.3782 47.1918 42.828 46.3949 43.2553 45.5867C44.0711 45.6576 44.8853 45.7397 45.6996 45.8395C45.7592 45.8459 45.8189 45.8588 45.8801 45.8685C46.2445 45.8942 46.6057 45.949 46.9652 46.0021C47.428 46.0697 47.8907 46.1438 48.3519 46.221C48.9742 46.3257 49.5966 46.4416 50.2141 46.5752C50.5478 46.6477 50.88 46.7217 51.2137 46.7942C51.217 46.7942 51.2218 46.7942 51.225 46.7958C51.2282 46.7958 51.2315 46.7958 51.2363 46.7974C51.2573 46.8006 51.2815 46.8006 51.304 46.8038C51.333 46.8071 51.3621 46.8151 51.3846 46.8392C52.0973 47.0212 52.8083 47.2127 53.5065 47.443C53.571 47.4639 53.6451 47.4703 53.6951 47.5251C53.8773 47.5573 54.0434 47.6329 54.2143 47.6957C54.3642 47.7505 54.5142 47.8084 54.6625 47.868C55.0866 48.0354 55.5025 48.2205 55.9056 48.4347C56.0652 48.5184 56.2216 48.6069 56.3764 48.7003C56.5812 48.8243 56.7811 48.9547 56.9681 49.1044C57.023 49.1479 57.0391 49.1656 57.0181 49.1913L57.0214 49.1897Z" fill="#007FFF"/>
        <path fill-rule="evenodd" clip-rule="evenodd" d="M61.4669 37.5855C61.4475 37.2008 61.3008 36.8611 61.0767 36.552C60.7607 36.1125 60.3528 35.7696 59.911 35.4669C59.158 34.9517 58.3341 34.5734 57.4909 34.2353C57.0217 34.047 56.546 33.8795 56.0656 33.725C55.3336 33.4899 54.5903 33.2887 53.8438 33.1052C52.9102 32.8766 51.9718 32.6785 51.027 32.5063C50.4514 32.4016 49.8742 32.3002 49.2954 32.2165C49.2776 32.2165 49.2599 32.2149 49.2422 32.2133C49.2325 32.2133 49.2212 32.2117 49.2115 32.2101C49.1906 32.2084 49.168 32.2052 49.147 32.2036C49.0987 32.1972 49.0487 32.1875 49.0019 32.1763C48.8294 32.1489 48.6585 32.1215 48.486 32.0925C48.386 32.078 48.2861 32.0636 48.1861 32.0507C48.1474 32.0442 48.1087 32.0394 48.07 32.0346C47.6718 31.9863 47.2719 31.9396 46.8737 31.8881C46.7576 31.8736 46.6415 31.8639 46.5254 31.851C46.4093 31.8398 46.2932 31.8253 46.1787 31.8028C45.4048 31.7303 44.6309 31.653 43.8554 31.5902C43.7473 31.5822 43.6393 31.5725 43.5313 31.5645C42.8638 31.5114 42.1963 31.4663 41.5272 31.4341C41.2063 31.4196 40.8838 31.4019 40.5614 31.3858C40.3179 31.3745 40.0728 31.3616 39.8294 31.352C39.2715 31.331 38.7153 31.3182 38.1574 31.3069C37.9494 31.3021 37.7414 31.2989 37.535 31.2956C37.1852 31.2892 37.535 31.2956 37.535 31.2956C37.535 31.2956 37.9172 29.7598 38.0703 28.9838C38.1864 28.4026 38.2864 27.8182 38.3751 27.2322C38.4331 26.8394 38.4847 26.4466 38.5298 26.0522C38.5766 25.64 38.6137 25.2263 38.6395 24.8109C38.6669 24.3682 38.6846 23.9239 38.6943 23.4811C38.7056 22.8871 38.6862 22.2946 38.6427 21.7022C38.6137 21.311 38.5766 20.9214 38.5266 20.5318C38.4589 19.9989 38.3622 19.4725 38.2348 18.9509C38.1332 18.5339 38.0171 18.1185 37.8623 17.7161C37.8543 17.7161 37.8462 17.7161 37.8381 17.7193C37.8301 17.7193 37.822 17.7225 37.8156 17.7241C37.7898 17.7322 37.7672 17.745 37.743 17.7547C37.0658 18.038 36.4257 18.3906 35.8082 18.7834C35.7728 18.806 35.7341 18.8237 35.7195 18.8671C35.8679 19.8025 35.9372 20.7427 35.9453 21.6893C35.9582 23.0432 35.8582 24.3891 35.6728 25.7302C35.5325 26.7396 35.3471 27.741 35.1214 28.7359C34.9263 29.5988 34.7006 30.4536 34.449 31.3005C33.8412 31.3069 33.2317 31.3262 32.6239 31.3455C31.8145 31.3729 31.0051 31.4099 30.1973 31.4615C29.4847 31.5065 28.7704 31.5532 28.0577 31.6144C27.1323 31.6949 26.2084 31.785 25.2878 31.8977C25.0669 32.3549 24.8524 32.8154 24.6461 33.279C24.3381 33.9713 24.0479 34.67 23.7754 35.3751C23.7883 35.3735 23.7996 35.3719 23.8125 35.3703C24.8879 35.219 25.9682 35.0934 27.0484 34.9855C27.358 34.9549 27.6676 34.9179 27.9787 34.8906C28.7462 34.8262 29.5153 34.7827 30.2844 34.7344C31.284 34.67 32.2853 34.6297 33.2881 34.6008H33.3252C34.1782 34.5766 35.0311 34.5654 35.8856 34.5637C36.1001 34.5637 36.3145 34.5637 36.5305 34.5654C37.0175 34.567 37.506 34.5718 37.9929 34.5798C38.546 34.5895 39.0974 34.6104 39.6504 34.6297H39.6649C40.1938 34.6491 40.7226 34.6684 41.2515 34.6941C41.6578 34.7135 42.0641 34.7424 42.4704 34.773C42.5574 34.7795 42.6445 34.7859 42.7316 34.7923C43.341 34.8358 43.9489 34.8809 44.5583 34.9276C44.7083 34.9389 44.8566 34.9598 45.0066 34.9743C45.8127 35.0451 46.6173 35.1353 47.4202 35.2383C47.7798 35.2834 48.1377 35.3317 48.4973 35.38C49.2535 35.4846 50.008 35.6102 50.7594 35.7406C51.4833 35.8678 52.2056 36.011 52.9215 36.1736C53.5519 36.3169 54.1791 36.4731 54.8015 36.6421C55.6189 36.8643 56.4219 37.1235 57.2152 37.4165C57.9004 37.6709 58.5631 37.9703 59.2048 38.3197C59.6465 38.5611 60.0658 38.8316 60.4479 39.16C60.7945 39.4579 61.0977 39.7927 61.2992 40.2113C61.3798 40.3771 61.4169 40.5558 61.4685 40.7297C61.4701 40.3836 61.4733 40.0374 61.4749 39.6913V38.149C61.4749 37.9623 61.4814 37.7739 61.4717 37.5888L61.4669 37.5855Z" fill="#FF1100"/>
        <path fill-rule="evenodd" clip-rule="evenodd" d="M41.113 13.028C40.9889 12.9877 40.8615 12.9588 40.7422 12.9024C40.7422 12.8863 40.7438 12.8702 40.7454 12.8541C40.8937 12.8992 41.034 12.962 41.1646 13.0457C41.1469 13.0393 41.1291 13.0344 41.1114 13.028H41.113Z" fill="#404A5A"/>
        <path fill-rule="evenodd" clip-rule="evenodd" d="M40.7353 12.8444C39.9388 12.4902 39.1407 12.1377 38.3442 11.7819C38.312 11.7674 38.2797 11.7787 38.2507 11.7609C38.2233 11.7674 38.1943 11.7738 38.183 11.7384C38.1507 11.7529 38.1201 11.7384 38.0895 11.7271C37.3913 11.5178 36.677 11.4535 35.9499 11.4905C34.9873 11.5404 34.0651 11.7754 33.1686 12.1216C32.8865 12.2294 32.6091 12.3486 32.3383 12.4757C32.2705 12.5079 32.2028 12.5401 32.1351 12.5739C32.0561 12.6126 31.9771 12.6512 31.8997 12.6931C31.7949 12.7462 31.6917 12.8009 31.5869 12.8573C31.0436 13.1535 30.5163 13.4835 30.0052 13.8377C29.8988 13.9118 29.7924 13.9858 29.6876 14.0615L29.6247 14.1066C29.3732 14.2901 29.1265 14.4769 28.8846 14.67C28.2784 15.1514 27.6964 15.6634 27.1337 16.1995C25.5713 17.6886 24.1831 19.3323 22.9126 21.0743C22.8803 21.1193 22.8481 21.166 22.8158 21.2111C22.7836 21.2562 22.8126 21.2224 22.8094 21.2256C22.8062 21.2288 22.8013 21.2304 22.7949 21.232C22.6804 21.3946 22.5675 21.5556 22.4531 21.7182C22.2628 21.9887 22.0758 22.2591 21.892 22.5344C21.7178 22.7952 21.5453 23.0593 21.376 23.3233C21.2406 23.5326 21.1084 23.7435 20.9778 23.956C20.8617 24.146 20.7456 24.3343 20.6311 24.5243C20.4699 24.7931 20.3103 25.0636 20.1523 25.3373C20.0733 25.4741 19.9959 25.6094 19.9185 25.7478C19.9104 25.7639 19.8991 25.7784 19.8894 25.7945C19.8894 25.8122 19.883 25.8267 19.8766 25.8412C19.8701 25.8509 19.8637 25.8621 19.8588 25.8718C19.7863 26.0006 19.7153 26.131 19.6444 26.2614C19.3767 26.7492 19.1155 27.2418 18.864 27.7377C18.7576 27.947 18.6528 28.1578 18.5496 28.3687C17.9917 29.5086 17.4742 30.6661 16.9985 31.8397C16.7454 32.4627 16.5052 33.0906 16.2762 33.7217C16.1553 34.0565 16.036 34.393 15.9215 34.7311C15.7103 35.3557 15.5168 35.9852 15.3282 36.6163C15.2508 36.8755 15.175 37.1363 15.1024 37.3971C15.1008 37.4035 15.0992 37.41 15.0976 37.4164C14.9831 37.8253 14.8767 38.2359 14.7767 38.648C14.6848 39.0183 14.5962 39.3902 14.5139 39.7637C14.443 40.0824 14.3785 40.4028 14.314 40.7232C14.2995 40.7988 14.285 40.8745 14.2705 40.9518C14.264 40.9824 14.2592 41.013 14.2527 41.0435C14.2511 41.0548 14.2479 41.0661 14.2463 41.079C14.235 41.1401 14.2221 41.1997 14.2108 41.2609C14.1189 41.7616 14.0367 42.2639 13.9657 42.7694C13.8964 43.2572 13.8351 43.7434 13.7835 44.2328C13.7723 44.3422 13.7626 44.4517 13.7513 44.5612C13.7513 44.5692 13.7497 44.5773 13.7497 44.5853C13.7416 44.6691 13.7368 44.7286 13.7303 44.7882C13.7078 45.0603 13.6884 45.3339 13.6723 45.606C13.6562 45.8797 13.6433 46.1534 13.6352 46.4271C13.6352 46.4625 13.6352 46.4979 13.632 46.5333C13.6159 47.0598 13.6126 47.5846 13.6288 48.1094C13.6449 48.6053 13.6723 49.0995 13.7191 49.5938C13.7642 50.0864 13.8271 50.5774 13.9125 51.0684C13.9545 51.3083 13.9996 51.5466 14.0512 51.7832C14.2221 52.5818 14.4527 53.3642 14.7687 54.1208C14.7913 54.1739 14.8122 54.2255 14.8364 54.2786C14.859 54.3301 14.8832 54.3832 14.9057 54.4348C14.9606 54.5571 15.0186 54.6778 15.0783 54.797C15.1782 54.9966 15.2846 55.1914 15.3975 55.3814C15.7071 55.903 16.0714 56.3876 16.5036 56.8255C16.6164 56.9414 16.7341 57.0509 16.855 57.1555C17.0824 57.3535 17.3242 57.5354 17.5822 57.698C17.6306 57.7286 17.687 57.7463 17.7225 57.793C17.7273 57.7995 17.7321 57.8075 17.7354 57.8156C17.7596 57.8107 17.7773 57.8156 17.7837 57.8413C17.8837 57.8655 17.9643 57.9331 18.0562 57.9733C18.5464 58.1907 19.0349 58.408 19.5251 58.6253C19.804 58.7493 20.0845 58.87 20.3651 58.9924L20.4006 58.9602C20.3103 58.9039 20.2168 58.8507 20.1297 58.7912C20.0378 58.7284 19.9507 58.6624 19.8637 58.5948C19.1333 58.0281 18.5609 57.3213 18.0917 56.5212C17.8063 56.035 17.5741 55.5247 17.3742 54.9998C17.3694 54.987 17.3645 54.9757 17.3597 54.9628C17.0921 54.2528 16.897 53.5219 16.7502 52.7782C16.6712 52.3805 16.6084 51.9796 16.5535 51.5772C16.5503 51.5482 16.5455 51.5208 16.5422 51.4918C16.5165 51.2938 16.4939 51.0942 16.4729 50.8962C16.4423 50.6032 16.4197 50.3118 16.4036 50.0172C16.4004 49.9447 16.3955 49.8723 16.3923 49.7998C16.3923 49.7821 16.3907 49.7628 16.3891 49.7451C16.3746 49.3394 16.3601 48.9337 16.3617 48.528V48.462C16.3617 48.3896 16.3617 48.3171 16.3649 48.2447C16.3746 47.9259 16.3842 47.6087 16.3971 47.2916C16.4036 47.1322 16.4116 46.9744 16.4213 46.8151C16.431 46.6557 16.4407 46.4979 16.452 46.3385C16.4939 45.7831 16.5503 45.2309 16.618 44.6787C16.6422 44.4775 16.668 44.2779 16.697 44.0766C16.7277 43.8528 16.7615 43.6291 16.797 43.4069C16.8244 43.2314 16.8534 43.0559 16.8841 42.8804C16.9179 42.6808 16.955 42.4828 16.9921 42.2832C17.0388 42.032 17.0888 41.7825 17.1404 41.5313C17.2001 41.2464 17.2613 40.9598 17.3258 40.6765C17.3839 40.4237 17.4435 40.171 17.5064 39.9182C17.5758 39.6397 17.6467 39.3612 17.7209 39.0843C17.7386 39.0199 17.7579 38.9555 17.7773 38.8911C17.7966 38.8267 17.816 38.7623 17.8321 38.6979C17.866 38.5627 17.8934 38.4274 17.9418 38.2954C17.953 38.2809 17.9708 38.2665 17.9724 38.2504C18.0111 37.9316 18.1256 37.6338 18.2239 37.3343C18.2674 37.2007 18.3094 37.0655 18.3513 36.9302C18.4093 36.7419 18.4674 36.5535 18.527 36.3652C18.5754 36.2106 18.6254 36.0561 18.6786 35.9031C18.6995 35.8435 18.7189 35.7824 18.7399 35.7212C18.7673 35.6439 18.7947 35.5666 18.8221 35.4894C18.9382 35.1674 19.051 34.8438 19.1687 34.5218C19.2171 34.3898 19.2671 34.2562 19.3171 34.1242C19.4896 33.6718 19.6669 33.2226 19.8508 32.7767C19.9023 32.6495 19.9556 32.5239 20.0088 32.3983C20.0523 32.2969 20.0942 32.1971 20.1361 32.0957C20.2393 31.8574 20.3441 31.6191 20.4489 31.3809C20.5312 31.1941 20.615 31.009 20.7005 30.8222C20.7649 30.679 20.8311 30.5389 20.8972 30.3956C21.0745 30.0157 21.2551 29.639 21.4437 29.2639C21.476 29.1978 21.5147 29.1351 21.5518 29.0723C21.5888 29.0095 21.6259 28.9451 21.6582 28.8775C22.2064 27.7167 22.8497 26.6075 23.5124 25.5096C23.572 25.4113 23.6301 25.3131 23.6897 25.2149C23.8284 24.9863 23.9606 24.7545 24.117 24.5404C24.2153 24.4068 24.3056 24.2715 24.3959 24.1331C24.4862 23.9962 24.5749 23.8578 24.6668 23.7226C24.8538 23.4521 25.028 23.172 25.2134 22.8999C25.2376 22.8645 25.2617 22.8291 25.2859 22.7936C25.4101 22.6149 25.5391 22.4395 25.6648 22.2624V22.2575V22.2527C25.6648 22.2527 25.6745 22.243 25.6793 22.2398C25.6826 22.2398 25.6858 22.2366 25.689 22.2366C25.8712 21.9919 26.0534 21.7456 26.2356 21.5009C26.2436 21.4896 26.2533 21.48 26.2614 21.4703C26.2662 21.4655 26.2694 21.4606 26.2727 21.4574C26.284 21.4445 26.2952 21.4333 26.3065 21.4204V21.4043C26.3065 21.3995 26.3065 21.3946 26.3081 21.3914C26.3114 21.3817 26.3146 21.3753 26.3194 21.3689C26.3243 21.3624 26.3323 21.3576 26.3388 21.3512C26.3468 21.3463 26.3549 21.3415 26.363 21.3367C26.3678 21.3318 26.371 21.327 26.3742 21.3222C26.4452 21.2336 26.5177 21.1451 26.5887 21.0565C26.5967 21.0469 26.6048 21.0356 26.6129 21.026C26.6129 21.0195 26.6161 21.0147 26.6193 21.0082C26.6209 21.0034 26.6242 20.997 26.6274 20.9922C26.6338 20.9825 26.6419 20.9728 26.65 20.9648C26.65 20.9632 26.6532 20.9616 26.6548 20.96C26.6854 20.931 26.7241 20.9068 26.7322 20.8634V20.8553C26.7322 20.8473 26.7386 20.8408 26.7451 20.8376C26.7483 20.8376 26.7515 20.836 26.7548 20.8344C26.7757 20.8183 26.7951 20.8022 26.8112 20.7829C26.816 20.778 26.8193 20.7732 26.8225 20.77C26.8354 20.7555 26.8467 20.7394 26.8579 20.7233C26.8725 20.7024 26.887 20.6798 26.9015 20.6573C26.9128 20.6412 26.9241 20.6235 26.9353 20.6074C26.9434 20.5961 26.9515 20.5848 26.9595 20.5752C27.0143 20.5076 27.0708 20.44 27.1256 20.3739C27.5126 19.9022 27.9108 19.4418 28.3203 18.991C28.6412 18.6369 28.9733 18.2939 29.3087 17.9543C29.3667 17.8947 29.4264 17.8351 29.4844 17.7772C29.5941 17.6677 29.7085 17.5663 29.8214 17.4616C29.8666 17.4198 29.9117 17.3795 29.9552 17.3361C29.9649 17.328 29.973 17.3183 29.9826 17.3103C30.1229 17.1751 30.2664 17.0398 30.4083 16.9062C30.4115 16.903 30.4148 16.9014 30.418 16.8982C30.4551 16.8643 30.497 16.8338 30.5357 16.8032C30.5454 16.7951 30.5534 16.7871 30.5631 16.7774C30.5663 16.7742 30.5679 16.7726 30.5711 16.7694C30.6147 16.7243 30.6598 16.6808 30.7034 16.6357C30.7098 16.6261 30.7163 16.6196 30.7243 16.6148C30.7324 16.61 30.7421 16.6068 30.7533 16.6068C30.7662 16.6052 30.7775 16.5987 30.7872 16.5923C30.7936 16.5874 30.8001 16.581 30.8065 16.5746C30.8114 16.5697 30.8146 16.5633 30.8194 16.5569C30.8275 16.5472 30.8372 16.5359 30.8452 16.5263C30.9597 16.4248 31.0742 16.325 31.1919 16.2268C31.2096 16.2123 31.2274 16.1978 31.2451 16.1817C31.358 16.0868 31.4724 15.9934 31.5885 15.9C31.8481 15.6923 32.1158 15.4911 32.3882 15.3011C32.3979 15.2963 32.406 15.2915 32.4157 15.2866H32.4173C32.4253 15.2754 32.435 15.2657 32.4447 15.2577C32.5059 15.2126 32.5688 15.1659 32.6301 15.1224C32.7542 15.0323 32.8816 14.9453 33.0074 14.86C33.0703 14.8182 33.1348 14.7747 33.1992 14.7344C33.2637 14.6926 33.3282 14.6507 33.3927 14.6105C33.5878 14.4881 33.7845 14.369 33.9845 14.2547C34.2021 14.1291 34.4246 14.0084 34.6471 13.8925C35.3179 13.5479 36.0112 13.2565 36.7367 13.0408C36.7915 13.0247 36.848 13.0086 36.9028 12.9925C37.2897 12.8847 37.6783 12.8026 38.0733 12.7494C38.2974 12.7188 38.5248 12.6979 38.7521 12.6883C38.923 12.6802 39.0939 12.6786 39.2665 12.6834C39.3245 12.685 39.3809 12.6866 39.439 12.6899C39.6115 12.6995 39.7824 12.7172 39.9533 12.7414C40.1903 12.7736 40.4241 12.8187 40.6579 12.8782C40.6643 12.8766 40.6692 12.875 40.6756 12.8782C40.6821 12.8782 40.6869 12.883 40.6901 12.8879C40.695 12.8895 40.7014 12.8911 40.7063 12.8927C40.7176 12.8959 40.7272 12.8991 40.7385 12.904C40.7385 12.8879 40.7401 12.8718 40.7417 12.8557C40.7385 12.8525 40.7353 12.8492 40.7305 12.8476L40.7353 12.8444Z" fill="#F1ECE2"/>
        <path fill-rule="evenodd" clip-rule="evenodd" d="M38.1846 11.7369C38.1733 11.6869 38.1249 11.6821 38.0895 11.666C37.4026 11.3617 36.7157 11.0559 36.0257 10.7548C35.8419 10.6743 35.6645 10.5809 35.4743 10.5165C35.4533 10.5294 35.4307 10.5278 35.4081 10.5198C34.9357 10.3652 34.4456 10.2879 33.9522 10.2573C33.4991 10.23 33.0445 10.2573 32.5946 10.3169C32.2238 10.3668 31.8594 10.4441 31.4982 10.5407C30.7969 10.7291 30.1229 10.985 29.4732 11.3054C29.2232 11.4294 28.9814 11.5694 28.7347 11.6998C28.6525 11.7433 28.567 11.7819 28.488 11.8286C27.7818 12.2488 27.0966 12.7012 26.4468 13.2051C26.284 13.3307 26.1179 13.453 25.9663 13.5899C25.868 13.6784 25.7729 13.7686 25.6664 13.8458C25.6471 13.8603 25.6261 13.8748 25.6019 13.8893C25.5842 13.9054 25.5665 13.9199 25.5487 13.9344V13.9376C25.5407 13.9585 25.5326 13.9778 25.5197 13.9891C25.5117 13.9956 25.5036 13.9988 25.4939 14.0004H25.4778H25.4746C25.4746 14.0004 25.4649 13.9972 25.4584 13.9956C25.4536 13.9988 25.4488 14.002 25.4455 14.0052C25.3891 14.0455 25.3585 14.1147 25.3069 14.1549C25.2988 14.1614 25.2908 14.1662 25.2827 14.171C25.1473 14.2419 25.065 14.3691 24.9441 14.456C24.828 14.5397 24.7313 14.6508 24.6249 14.749C24.0976 15.2336 23.5994 15.7471 23.1061 16.2655C22.9545 16.4249 22.8191 16.5956 22.674 16.7614C22.5901 16.8564 22.4966 16.9401 22.4144 17.0334C22.1903 17.2894 21.9726 17.5518 21.7517 17.8094C21.5872 18.001 21.4325 18.199 21.2857 18.4035C21.1696 18.5661 21.031 18.711 20.9068 18.8671C20.5312 19.3485 20.1748 19.8443 19.8185 20.3386C19.467 20.8264 19.1446 21.3335 18.8108 21.8342C18.5109 22.2834 18.2352 22.7486 17.9498 23.2091C17.845 23.3797 17.7515 23.5568 17.6451 23.7274C17.4629 24.0204 17.2936 24.3215 17.134 24.6274C17.034 24.7465 16.9744 24.8914 16.8986 25.025C16.7406 25.3052 16.589 25.5885 16.452 25.8799C16.4084 25.9733 16.3455 26.0521 16.3004 26.1455C16.173 26.4047 16.044 26.6639 15.9102 26.9215C15.5765 27.5687 15.283 28.2336 14.9783 28.8952C14.6478 29.61 14.3543 30.3425 14.0641 31.0751C13.8674 31.5725 13.6691 32.07 13.5127 32.5819C13.4869 32.6656 13.4385 32.7413 13.4095 32.8234C13.2579 33.2645 13.1064 33.704 12.9629 34.1468C12.8291 34.5541 12.7033 34.9646 12.5824 35.3751C12.4663 35.7712 12.355 36.1672 12.2486 36.5648C12.0406 37.336 11.8504 38.112 11.6875 38.8928C11.6456 39.1004 11.6037 39.3081 11.5634 39.5158C11.4247 40.2225 11.3022 40.9341 11.2022 41.6489C11.1087 42.3283 11.0313 43.0093 10.97 43.6919C10.9652 43.7547 10.9604 43.8175 10.9555 43.8803C10.9265 44.2538 10.9039 44.6289 10.8894 45.0056C10.8717 45.4354 10.8685 45.8653 10.8652 46.2951C10.8652 46.4996 10.8862 46.7056 10.8846 46.9117C10.8814 47.2256 10.9088 47.538 10.9265 47.8503C10.933 47.9646 10.9378 48.0805 10.9491 48.1964C10.9507 48.2157 10.9539 48.2367 10.9555 48.256C10.9926 48.557 11.0168 48.8597 11.0587 49.1591C11.099 49.4505 11.1393 49.7419 11.1925 50.0301C11.2699 50.4326 11.3425 50.8351 11.4666 51.2263C11.5053 51.3486 11.5263 51.4774 11.5618 51.603C11.6359 51.8767 11.7246 52.1471 11.8213 52.4128C11.9616 52.7943 12.1229 53.1678 12.297 53.5349C12.5662 54.0983 12.9 54.6232 13.2918 55.1094C13.6626 55.5714 14.0867 55.9787 14.572 56.32C14.5913 56.3345 14.6123 56.3474 14.6333 56.3603C14.6687 56.3828 14.7042 56.4053 14.7397 56.4279C14.759 56.4408 14.78 56.4536 14.8009 56.4665C14.8687 56.5084 14.9348 56.5518 14.9993 56.5985C14.9993 56.5985 15.0009 56.5985 15.0025 56.6001C15.0218 56.6146 15.0412 56.6291 15.0605 56.6452C15.0605 56.6484 15.0637 56.6517 15.0654 56.6549C15.0766 56.671 15.0992 56.6726 15.117 56.6806C15.9554 57.0509 16.7922 57.4212 17.6306 57.7915C17.6644 57.806 17.6967 57.8285 17.737 57.8188C17.7322 57.8108 17.7289 57.8043 17.7241 57.7963C17.6886 57.7496 17.6322 57.7319 17.5838 57.7013C17.3275 57.5387 17.084 57.3568 16.8567 57.1588C16.7357 57.0541 16.618 56.943 16.5052 56.8287C16.0731 56.3908 15.7087 55.9047 15.3991 55.3847C15.2862 55.1947 15.1798 54.9999 15.0799 54.8003C15.0202 54.6811 14.9622 54.5604 14.9074 54.438C14.8832 54.3849 14.8606 54.3334 14.838 54.2803C14.8154 54.2271 14.7929 54.1756 14.7703 54.1225C14.4543 53.3658 14.2253 52.5834 14.0528 51.7849C14.0012 51.5482 13.9561 51.31 13.9142 51.0701C13.8303 50.5807 13.7674 50.0897 13.7207 49.5954C13.6739 49.1028 13.6465 48.6069 13.6304 48.1111C13.6143 47.5863 13.6175 47.0598 13.6336 46.535C13.6352 46.4996 13.6352 46.4642 13.6368 46.4287C13.6465 46.1551 13.6594 45.8814 13.6739 45.6077C13.69 45.3356 13.7094 45.0619 13.732 44.7899C13.7368 44.7303 13.7432 44.6707 13.7513 44.587C13.7513 44.579 13.7529 44.5709 13.7529 44.5629C13.7626 44.4534 13.7723 44.3439 13.7852 44.2344C13.8351 43.745 13.898 43.2572 13.9674 42.771C14.0399 42.2655 14.1221 41.7632 14.2124 41.2625C14.2237 41.2014 14.2366 41.1418 14.2479 41.0806C14.2495 41.0694 14.2527 41.0581 14.2544 41.0452C14.2608 41.0146 14.2656 40.984 14.2721 40.9534C14.2866 40.8762 14.3011 40.8005 14.3156 40.7248C14.3785 40.4045 14.4446 40.0841 14.5156 39.7653C14.5978 39.3918 14.6865 39.0199 14.7784 38.6497C14.8799 38.2375 14.9864 37.827 15.0992 37.4181C15.0992 37.4117 15.1024 37.4052 15.1041 37.3988C15.1766 37.138 15.2524 36.8772 15.3298 36.618C15.5184 35.9869 15.7135 35.3574 15.9231 34.7328C16.0376 34.3947 16.1569 34.0582 16.2778 33.7234C16.5068 33.0907 16.747 32.4628 17.0002 31.8414C17.4758 30.6678 17.9917 29.5102 18.5512 28.3704C18.6544 28.1595 18.7592 27.9486 18.8656 27.7393C19.1171 27.2435 19.3783 26.7508 19.646 26.263C19.7169 26.1326 19.7895 26.0022 19.8604 25.8734C19.8669 25.8638 19.8733 25.8525 19.8782 25.8429C19.8862 25.8284 19.8927 25.8139 19.8911 25.7962C19.9007 25.7801 19.912 25.764 19.9201 25.7495C19.9975 25.6126 20.0749 25.4758 20.1539 25.339C20.3119 25.0669 20.4699 24.7964 20.6327 24.526C20.7472 24.336 20.8633 24.146 20.9794 23.9577C21.11 23.7452 21.2422 23.5343 21.3776 23.325C21.5469 23.0609 21.7195 22.7969 21.8936 22.5361C22.0774 22.2608 22.2644 21.9904 22.4547 21.7199C22.5675 21.5573 22.682 21.3963 22.7965 21.2337V21.224C22.7965 21.2224 22.7981 21.2192 22.7997 21.2176C22.8029 21.2128 22.8094 21.2112 22.8158 21.2112C22.8481 21.1661 22.8787 21.1194 22.9126 21.0743C24.1831 19.3324 25.5713 17.6903 27.1337 16.1995C27.6964 15.6634 28.2768 15.1515 28.8847 14.6701C29.1265 14.4769 29.3732 14.2902 29.6247 14.1066L29.6876 14.0616C29.7924 13.9859 29.8988 13.9118 30.0052 13.8378C30.5179 13.4836 31.0436 13.1536 31.5869 12.8573C31.6901 12.801 31.7949 12.7463 31.8997 12.6931C31.9787 12.6529 32.0561 12.6126 32.1351 12.574C32.2028 12.5402 32.2705 12.508 32.3383 12.4758C32.6108 12.3486 32.8865 12.2295 33.1686 12.1216C34.0651 11.7771 34.9873 11.5421 35.9499 11.4905C36.6754 11.4519 37.3897 11.5163 38.0895 11.7272C38.1201 11.7369 38.1507 11.7513 38.183 11.7385C38.183 11.7369 38.2152 11.7256 38.183 11.7385L38.1846 11.7369Z" fill="#FDBF41"/>
        <path fill-rule="evenodd" clip-rule="evenodd" d="M35.3231 10.4505C34.6991 10.172 34.0735 9.90155 33.4528 9.61982C32.7417 9.29623 32.0033 9.0966 31.2213 9.05957C31.0246 9.05957 30.8263 9.05957 30.6296 9.06118H30.399C30.0056 9.08211 29.617 9.14007 29.2317 9.22217C28.095 9.46366 27.0373 9.90799 26.0231 10.465C25.0025 11.0253 24.0545 11.695 23.1532 12.4291C23.0387 12.5225 22.9146 12.6078 22.8146 12.7205C22.8065 12.7237 22.7985 12.7302 22.7936 12.7382V12.7479H22.7888H22.784C22.7582 12.7688 22.7324 12.7881 22.7066 12.809C21.7085 13.6623 20.7814 14.588 19.9043 15.5652C18.8628 16.7276 17.9018 17.9543 17.0037 19.2294C15.6655 21.129 14.4804 23.1221 13.4244 25.1908C12.7117 26.585 12.0636 28.0098 11.4799 29.4635C10.872 30.9801 10.3142 32.5159 9.86595 34.0888C9.81597 34.2627 9.7547 34.4349 9.70472 34.6088C9.33711 35.9048 9.01948 37.212 8.76957 38.5354C8.55674 39.6575 8.38744 40.7844 8.27619 41.921C8.19396 42.7453 8.13753 43.5712 8.14076 44.4003C8.14076 44.777 8.14237 45.1537 8.14398 45.5304C8.14882 45.5819 8.15043 45.6334 8.15204 45.685C8.15366 45.7655 8.15204 45.8443 8.14882 45.9248C8.15204 46.3837 8.19074 46.8393 8.23427 47.2965C8.30683 48.0419 8.41969 48.7792 8.58576 49.5085C8.79214 50.4229 9.0743 51.31 9.47577 52.1584C9.90626 53.0664 10.4528 53.8923 11.1913 54.5829C11.6218 54.9854 12.0958 55.3251 12.6295 55.5746C13.1035 55.7968 13.584 56.0045 14.0645 56.2154C14.3934 56.3603 14.7191 56.5164 15.0544 56.6452C15.0351 56.6307 15.0157 56.6146 14.9964 56.6001C14.9964 56.6001 14.9948 56.6001 14.9932 56.5985C14.9287 56.5518 14.8626 56.5084 14.7948 56.4665C14.7739 56.4536 14.7545 56.4407 14.7336 56.4279C14.6981 56.4053 14.6626 56.3844 14.6272 56.3603C14.6062 56.3474 14.5869 56.3329 14.5659 56.32C14.0806 55.9771 13.6582 55.5714 13.2857 55.1094C12.8939 54.6232 12.5602 54.0983 12.2909 53.5349C12.1152 53.1678 11.9539 52.7943 11.8153 52.4128C11.7782 52.379 11.7427 52.3435 11.7072 52.3081C11.7427 52.3435 11.7782 52.379 11.8153 52.4128C11.7185 52.1471 11.6298 51.8767 11.5557 51.603C11.5218 51.479 11.4992 51.3502 11.4605 51.2263C11.3364 50.8351 11.2622 50.4326 11.1865 50.0301C11.1316 49.7419 11.0929 49.4505 11.0526 49.1591C11.0107 48.8597 10.9849 48.557 10.9494 48.256C10.9478 48.2367 10.9446 48.2157 10.943 48.1964V49.3507V48.1964C10.9317 48.0821 10.9269 47.9662 10.9204 47.8503C10.9043 47.538 10.8769 47.2256 10.8785 46.9117C10.8785 46.7073 10.8575 46.5012 10.8591 46.2951C10.8624 45.8653 10.8672 45.4354 10.8833 45.0056C10.8978 44.6305 10.9204 44.2554 10.9494 43.8803C10.9543 43.8175 10.9591 43.7547 10.9639 43.6919C11.0252 43.0093 11.1026 42.3283 11.1961 41.6489C11.2961 40.9341 11.4186 40.2225 11.5573 39.5158C11.5976 39.3081 11.6395 39.1004 11.6814 38.8928C11.8427 38.1103 12.0345 37.336 12.2425 36.5648C12.3489 36.1672 12.4602 35.7695 12.5763 35.3751C12.6972 34.963 12.823 34.5541 12.9568 34.1468C13.1019 33.704 13.2535 33.2629 13.4034 32.8234C13.4308 32.7397 13.4808 32.664 13.5066 32.5819C13.6646 32.07 13.8613 31.5725 14.058 31.0751C14.3482 30.3425 14.6417 29.6116 14.9722 28.8952C15.2769 28.2352 15.5704 27.5687 15.9041 26.9215C16.0363 26.6639 16.1669 26.4047 16.2943 26.1455C16.3395 26.0537 16.404 25.9733 16.4459 25.8799C16.5829 25.5885 16.7345 25.3051 16.8925 25.025C16.9683 24.8914 17.0279 24.7465 17.1279 24.6274C17.2875 24.3215 17.4568 24.0204 17.639 23.7274C17.7454 23.5584 17.8389 23.3797 17.9437 23.209C18.2275 22.7486 18.5032 22.285 18.8047 21.8342C19.1385 21.3335 19.4609 20.8264 19.8124 20.3386C20.1688 19.8443 20.5251 19.3485 20.9008 18.8671C21.0233 18.7094 21.1619 18.5661 21.2796 18.4035C21.4264 18.199 21.5812 18.001 21.7456 17.8094C21.9665 17.5502 22.1842 17.2878 22.4083 17.0334C22.4905 16.9401 22.584 16.8564 22.6679 16.7614C22.813 16.5972 22.9484 16.4249 23.1 16.2655C23.5933 15.7471 24.0916 15.2336 24.6188 14.749C24.7252 14.6508 24.8219 14.5397 24.938 14.456C25.059 14.369 25.1396 14.2419 25.2766 14.171C25.2847 14.1662 25.2944 14.1614 25.3008 14.1549C25.3524 14.1147 25.383 14.0455 25.4395 14.0052C25.4443 14.002 25.4491 13.9988 25.4524 13.9955C25.4556 13.9762 25.462 13.9601 25.4717 13.9505C25.4814 13.9392 25.4927 13.9328 25.5088 13.9311C25.5185 13.9311 25.5314 13.9311 25.5443 13.9344C25.562 13.9199 25.5797 13.9038 25.5975 13.8893C25.6217 13.8732 25.641 13.8603 25.662 13.8458C25.7684 13.7685 25.8635 13.68 25.9619 13.5898C26.1134 13.4514 26.2811 13.3307 26.4423 13.2051C27.0921 12.7012 27.7773 12.2488 28.4835 11.8286C28.5642 11.7819 28.648 11.7433 28.7302 11.6998C28.9769 11.5678 29.2188 11.4277 29.4687 11.3054C30.1185 10.985 30.794 10.729 31.4938 10.5407C31.8549 10.4441 32.2193 10.3684 32.5902 10.3169C33.04 10.2557 33.4947 10.23 33.9477 10.2573C34.4427 10.2879 34.9313 10.3652 35.4037 10.5198C35.4279 10.5278 35.4488 10.5294 35.4698 10.5165C35.4295 10.4731 35.3682 10.4731 35.3182 10.4505H35.3231Z" fill="#FF1100"/>
        <path opacity="0.48" fill-rule="evenodd" clip-rule="evenodd" d="M56.9973 49.2106C57.0779 49.1479 57.0779 49.1414 56.9973 49.0786C56.8103 48.9289 56.6104 48.7985 56.4056 48.6745C55.722 48.2608 54.9916 47.9453 54.2435 47.6716C54.0726 47.6088 53.9065 47.5331 53.7243 47.5009C53.6743 47.4446 53.6001 47.4397 53.5357 47.4188C52.8375 47.187 52.1265 46.997 51.4138 46.8151C51.3542 46.8103 51.2961 46.7974 51.2445 46.7684C50.9108 46.696 50.577 46.6219 50.2449 46.5495C49.6274 46.4158 49.0066 46.2999 48.3843 46.1953C47.9231 46.118 47.4604 46.0456 46.9976 45.9763C46.6365 45.9232 46.2753 45.8685 45.9109 45.8427C45.8513 45.8331 45.7916 45.8218 45.7304 45.8137C44.455 45.6576 43.178 45.5401 41.8962 45.4515C41.0594 45.3952 40.2226 45.3501 39.3842 45.3179C38.2894 45.276 37.1931 45.2567 36.0967 45.2567C34.7375 45.2567 33.3799 45.2905 32.0239 45.3565C30.4567 45.4322 28.8928 45.5513 27.3336 45.7252C27.0789 45.7542 26.8209 45.7703 26.5694 45.825C26.5178 45.8105 26.4678 45.825 26.4162 45.8298C25.3053 45.9667 24.1993 46.1357 23.0997 46.3434C22.4499 46.4658 21.8033 46.601 21.1616 46.7539L21.1487 46.7749C21.1487 46.7749 20.9827 49.1607 21.3503 51.4903C21.9839 51.64 22.6208 51.7736 23.2593 51.8927C23.8301 51.999 24.4024 52.1004 24.978 52.1825C25.7842 52.2984 26.592 52.416 27.403 52.4997C28.1914 52.5818 28.9782 52.6671 29.7683 52.7251C30.2358 52.7589 30.7018 52.7991 31.1694 52.8265C31.8611 52.8667 32.5544 52.9006 33.2461 52.9247C33.8781 52.9472 34.5101 52.965 35.1422 52.973C36.1531 52.9859 37.1656 52.981 38.1766 52.9601C39.1504 52.9392 40.1243 52.9022 41.0965 52.8474C42.2558 52.783 43.4134 52.6913 44.5695 52.5721C46.3318 52.3902 48.0844 52.1455 49.8208 51.7994C51.338 51.4967 52.8375 51.1264 54.2918 50.5919C54.9255 50.3601 55.5462 50.0945 56.1363 49.7661C56.4362 49.6002 56.7265 49.4199 56.9973 49.209V49.2106Z" fill="url(#paint0_linear_102_14659)"/>
    </g>
    <defs>
        <linearGradient id="paint0_linear_102_14659" x1="39.1655" y1="46.1454" x2="39.1552" y2="51.9221" gradientUnits="userSpaceOnUse">
            <stop offset="0.16" stop-color="#191919"/>
            <stop offset="0.97" stop-color="#191919" stop-opacity="0"/>
        </linearGradient>
        <clipPath id="clip0_102_14659">
            <rect width="70" height="70" fill="white"/>
        </clipPath>
    </defs>
</svg>