<svg xmlns="http://www.w3.org/2000/svg" width="80" height="80" viewBox="0 0 80 80" fill="none"><script xmlns="" async="false" type="module"/>
    <g clip-path="url(#clip0_50_7185)">
        <path d="M80 40C80 62.0914 62.0914 80 40 80C17.9086 80 0 62.0914 0 40C0 17.9086 17.9086 0 40 0C62.0914 0 80 17.9086 80 40Z" fill="#072723"/>
        <path fill-rule="evenodd" clip-rule="evenodd" d="M8 15.8C12.3078 15.8 15.8 12.3078 15.8 8C15.8 3.69218 12.3078 0.2 8 0.2C3.69218 0.2 0.2 3.69218 0.2 8C0.2 12.3078 3.69218 15.8 8 15.8ZM8 16C12.4183 16 16 12.4183 16 8C16 3.58172 12.4183 0 8 0C3.58172 0 0 3.58172 0 8C0 12.4183 3.58172 16 8 16Z" fill="#0F3933"/>
        <path d="M68.4912 39.7956C68.5431 44.474 67.5641 48.9444 65.6409 53.2156C62.8945 59.2974 56.3101 64.2705 50.2974 58.9769C45.3938 54.6624 44.4841 45.9035 37.1374 44.6213C27.4167 43.443 27.1827 54.7144 20.8323 55.988C13.7541 57.4262 11.4062 45.5222 11.5102 40.1161C11.6141 34.71 13.0523 27.112 19.2035 27.112C26.2817 27.112 26.7582 37.8289 35.7425 37.2485C44.6401 36.642 44.796 25.4918 50.6093 20.7182C55.6255 16.5943 61.5256 19.6179 64.4798 24.5822C67.2176 29.1739 68.4218 34.5627 68.4824 39.7956H68.4912Z" fill="#97FCE4"/>
    </g>
    <defs>
        <clipPath id="clip0_50_7185">
            <rect width="80" height="80" rx="40" fill="white"/>
        </clipPath>
    </defs>
</svg>