<svg xmlns="http://www.w3.org/2000/svg" version="1.1" width="250" height="250">
    <path d="M0 0 C82.5 0 165 0 250 0 C250 82.5 250 165 250 250 C167.5 250 85 250 0 250 C0 167.5 0 85 0 0 Z " fill="#0063FF" transform="translate(0,0)"/>
    <path d="M0 0 C0 8.91 0 17.82 0 27 C21.78 27 43.56 27 66 27 C66 28.98 66 30.96 66 33 C63.9375 34.875 63.9375 34.875 61 37 C59.15668645 39.05305602 57.39787331 41.15960698 55.6484375 43.29296875 C54 45 54 45 51 46 C50.71125 46.5775 50.4225 47.155 50.125 47.75 C48.60616932 50.78766137 46.45156267 52.6624635 44 55 C43.175 55.825 42.35 56.65 41.5 57.5 C40.675 58.325 39.85 59.15 39 60 C38.13375 60.9075 37.2675 61.815 36.375 62.75 C34 65 34 65 31 66 C31 66.66 31 67.32 31 68 C34.3 68.99 37.6 69.98 41 71 C41 71.66 41 72.32 41 73 C41.8353125 73.185625 41.8353125 73.185625 42.6875 73.375 C47.03002379 74.54865508 49.87563785 75.78374485 53 79 C54.30642146 80.1320531 55.61930182 81.25668216 56.9375 82.375 C61.13148337 86.03030661 64.89946989 89.74867473 67 95 C67 95.99 67 96.98 67 98 C67.66 98 68.32 98 69 98 C70.25344168 101.88065543 70.18377543 105.77878874 70.1875 109.8125 C70.19974609 110.49892578 70.21199219 111.18535156 70.22460938 111.89257812 C70.2380431 116.62572725 69.48667949 120.50470432 68 125 C67.34 125 66.68 125 66 125 C65.86658203 126.09248047 65.86658203 126.09248047 65.73046875 127.20703125 C64.42597011 132.19482017 60.73447557 135.58523363 57 139 C53.5 140.5625 53.5 140.5625 51 141 C51 141.66 51 142.32 51 143 C42.47311379 145.54564105 34.69083963 146.44268093 25.8125 146.3125 C24.70197266 146.31572266 23.59144531 146.31894531 22.44726562 146.32226562 C15.9947451 146.28029181 10.23884371 145.65359004 4 144 C4 143.34 4 142.68 4 142 C3.13375 141.814375 3.13375 141.814375 2.25 141.625 C-1.49333025 140.58518604 -3.43194834 139.79121481 -5.75 136.5625 C-7 134 -7 134 -7 131 C-7.66 131 -8.32 131 -9 131 C-9.10841951 129.08458862 -9.18578079 127.16740227 -9.25 125.25 C-9.29640625 124.18265625 -9.3428125 123.1153125 -9.390625 122.015625 C-9 119 -9 119 -7.171875 116.671875 C-3.25975165 113.66038437 0.20175845 113.74746097 5 114 C8.38031589 115.18767855 8.93216817 115.89825225 11 119 C11.55485498 125.99117276 11.55485498 125.99117276 9.625 129.5 C8 131 8 131 6 131 C6 131.99 6 132.98 6 134 C9.63 134.99 13.26 135.98 17 137 C17 137.66 17 138.32 17 139 C22.28 139 27.56 139 33 139 C33 138.34 33 137.68 33 137 C33.59167969 136.84144531 34.18335938 136.68289062 34.79296875 136.51953125 C40.16643974 134.93291094 43.18827313 133.27375437 47 129 C47.66 129 48.32 129 49 129 C51.40868173 120.41907135 53.21479864 109.43856334 49.75 100.9375 C49.1725 99.968125 48.595 98.99875 48 98 C47.505 97.01 47.01 96.02 46.5 95 C39.34482488 86.41378986 27.56444131 81.40346392 16.75 79.39453125 C15 79 15 79 14 78 C13.21287307 73.91230676 13.12495692 70.38774438 15.38671875 66.80078125 C17.1767083 64.7622899 19.03348714 62.86798195 21 61 C21.86625 60.113125 22.7325 59.22625 23.625 58.3125 C24.40875 57.549375 25.1925 56.78625 26 56 C26.825 55.175 27.65 54.35 28.5 53.5 C34.33333333 47.66666667 40.16666667 41.83333333 46 36 C30.82 36 15.64 36 0 36 C0.09709776 42.85050237 0.19993303 49.70042289 0.31738281 56.55053711 C0.35558779 58.87926024 0.39045526 61.20804067 0.421875 63.53686523 C0.46770962 66.8906701 0.52567425 70.24408335 0.5859375 73.59765625 C0.59748871 74.63334244 0.60903992 75.66902863 0.62094116 76.73609924 C0.59644833 86.12833318 0.59644833 86.12833318 5 94 C10.6749232 95.36198157 14.5469619 94.6263447 20 93 C20 94.98 20 96.96 20 99 C17.525 99.99 17.525 99.99 15 101 C15 101.66 15 102.32 15 103 C8.127042 105.290986 0.92655555 104.85463424 -5.625 101.8125 C-8.70152596 100.24436783 -9.77217708 99.47870766 -11.2734375 96.32421875 C-11.51320313 95.55722656 -11.75296875 94.79023438 -12 94 C-12.66 94 -13.32 94 -14 94 C-16.58495879 88.10557839 -16.25415124 82.34594433 -16.1953125 76.0390625 C-16.1924826 74.89335785 -16.18965271 73.7476532 -16.18673706 72.56723022 C-16.17557135 68.91971245 -16.15047299 65.27244315 -16.125 61.625 C-16.11496555 59.14713897 -16.10584051 56.66927408 -16.09765625 54.19140625 C-16.07564376 48.12750891 -16.04113838 42.06379654 -16 36 C-22.27 36 -28.54 36 -35 36 C-35 33.36 -35 30.72 -35 28 C-28.73 28 -22.46 28 -16 28 C-16 22.39 -16 16.78 -16 11 C-18.64 10.34 -21.28 9.68 -24 9 C-23.67 7.35 -23.34 5.7 -23 4 C-17.06 3.505 -17.06 3.505 -11 3 C-11 2.34 -11 1.68 -11 1 C-7.18939869 0.29105092 -3.91978817 0 0 0 Z " fill="#F7FAFF" transform="translate(105,55)"/>
</svg>