<svg xmlns="http://www.w3.org/2000/svg" width="40" height="40" viewBox="0 0 40 40" fill="none"><script xmlns="" async="false" type="module"/>
    <rect width="40" height="40" fill="#262626"/>
    <path d="M22.4653 18.8106C22.1287 18.8106 21.7924 18.6822 21.5356 18.4254C21.022 17.9118 21.022 17.0796 21.5356 16.566L24.9356 13.166C25.4492 12.6524 26.2814 12.6524 26.7951 13.166C27.3087 13.6796 27.3087 14.5118 26.7951 15.0254L23.3951 18.4254C23.1383 18.6822 22.802 18.8106 22.4653 18.8106Z" fill="#38FF9C"/>
    <path d="M20 33.5C12.5559 33.5 6.5 27.4441 6.5 20C6.5 12.5559 12.5559 6.5 20 6.5C27.4441 6.5 33.5 12.5559 33.5 20C33.5 27.4441 27.4441 33.5 20 33.5ZM20 9.12955C14.0062 9.12955 9.12955 14.0059 9.12955 20C9.12955 25.9941 14.0059 30.8704 20 30.8704C25.9941 30.8704 30.8704 25.9941 30.8704 20C30.8704 14.0059 25.9941 9.12955 20 9.12955Z" fill="#38FF9C"/>
    <path d="M14.1353 27.1148C13.7986 27.1148 13.4623 26.9864 13.2055 26.7296C12.6919 26.216 12.6919 25.3834 13.2055 24.8702L16.6055 21.4702C17.1191 20.9566 17.9517 20.9566 18.465 21.4702C18.9786 21.9838 18.9786 22.8164 18.465 23.3296L15.065 26.7296C14.8082 26.9864 14.4715 27.1148 14.1353 27.1148Z" fill="#38FF9C"/>
    <path d="M19.7057 15.2671C17.3552 15.4358 15.4551 17.3258 15.2958 19.678C15.2871 19.8054 15.2316 19.9255 15.141 20.0157L13.2313 21.9283C13.123 22.0369 12.9363 21.9879 12.8974 21.8398C12.7423 21.2474 12.6465 20.6119 12.6465 19.9806C12.6465 15.9157 15.9535 12.6084 20.0187 12.6084C20.6812 12.6084 21.3236 12.6962 21.9351 12.861C22.0587 12.8944 22.0996 13.0495 22.009 13.1401L20.035 15.1151C19.9469 15.2032 19.8299 15.2581 19.7057 15.2671Z" fill="#38FF9C"/>
    <path d="M24.8407 19.9322L26.8158 17.9582C26.9063 17.8676 27.0615 17.9086 27.0948 18.0321C27.2596 18.6432 27.3474 19.2856 27.3474 19.9485C27.3474 24.0134 24.0404 27.3207 19.9752 27.3207C19.3439 27.3207 18.7085 27.2249 18.1161 27.0698C17.9679 27.0309 17.9189 26.8446 18.0276 26.736L19.9401 24.8262C20.0307 24.7359 20.1504 24.6801 20.2778 24.6714C22.6301 24.5121 24.5201 22.6117 24.6887 20.2615C24.6977 20.1369 24.7526 20.0203 24.8407 19.9322Z" fill="#38FF9C"/>
</svg>