<svg xmlns="http://www.w3.org/2000/svg" width="40" height="40" viewBox="0 0 40 40" fill="none"><script xmlns="" async="false" type="module"/>
    <rect width="40" height="40" fill="#7132F5"/>
    <path fill-rule="evenodd" clip-rule="evenodd" d="M33 20C33 12.8203 27.1797 7 20 7C12.8203 7 7 12.8203 7 20C7 27.1797 12.8203 33 20 33C27.1797 33 33 27.1797 33 20ZM21.8555 29.7294C21.8555 30.6113 21.1316 31.3282 20.1042 31.3488C20.0757 31.349 20.0472 31.3492 20.0187 31.3492H19.9813C13.7219 31.3391 8.65079 26.2618 8.65079 20C8.65079 13.732 13.732 8.65082 20 8.65081C20.0338 8.65081 20.0676 8.65096 20.1013 8.65126C21.2607 8.67191 21.8555 9.38873 21.8555 10.2706C21.8555 11.1681 21.0621 11.8286 20.2215 11.8286C19.381 11.8286 19.3397 11.8286 18.5351 11.893C17.7305 11.9575 16.8985 12.618 16.8985 13.5128C16.8985 14.413 17.6297 15.1379 18.5351 15.1379H25.6708C26.5735 15.1379 27.3048 15.8629 27.3048 16.7577C27.3048 17.6526 26.5735 18.3775 25.6708 18.3775H14.6799C13.7746 18.3775 13.0433 19.1051 13.0433 20.0027C13.0433 20.8975 13.7746 21.6225 14.6799 21.6225H20.2215C21.1242 21.6225 21.8555 22.3474 21.8555 23.2449C21.8555 24.1398 21.1242 24.8647 20.2215 24.8647H18.5351C17.6297 24.8647 16.8985 25.5896 16.8985 26.4845C16.8985 27.382 17.6479 28.0372 18.5351 28.1043C18.605 28.1096 18.669 28.1145 18.7279 28.119C19.0401 28.1428 19.2107 28.1558 19.3815 28.1629C19.5872 28.1714 19.7933 28.1714 20.2476 28.1714C21.1503 28.1714 21.8555 28.8345 21.8555 29.7294Z" fill="white"/>
</svg>