<svg version="1.1" xmlns="http://www.w3.org/2000/svg" width="250" height="250">
    <rect width="250" height="250" fill="#F3BA2F"/>
    <path d="M0 0 C11.88 0 23.76 0 36 0 C36.1875 12.125 36.1875 12.125 36.20776367 15.91455078 C36.30842555 22.72886997 36.30842555 22.72886997 39.09375 28.7734375 C42.75698118 31.57994526 44.74169388 31.61205245 49.3125 31.5 C55.19106579 31.57771542 59.07466982 32.27347211 63.484375 36.34765625 C63.98453125 36.89292969 64.4846875 37.43820313 65 38 C65.804375 38.86625 66.60875 39.7325 67.4375 40.625 C69.39067691 44.84386213 69.52800883 48.48605085 69.62890625 53.09765625 C70.1731022 57.35384144 71.86759787 60.00485873 75.0625 62.8125 C79.40444408 64.56775399 83.38230909 64.6723358 88 64 C92.11541166 61.94229417 94.33905344 60.26459252 96 56 C96.19040963 54.04694122 96.31012418 52.08624592 96.375 50.125 C96.80353277 44.14733107 98.07112884 40.74160319 102.52734375 36.5703125 C106.67455377 32.98079576 108.82707943 31.95261411 114.25732422 31.86181641 C120.42995252 31.85407821 120.42995252 31.85407821 126.06640625 29.70703125 C129.25407545 25.85328192 130.11081909 21.95926427 130.31640625 17.11328125 C130.35451416 16.26805908 130.39262207 15.42283691 130.43188477 14.55200195 C130.47498779 13.48296631 130.51809082 12.41393066 130.5625 11.3125 C130.706875 7.909375 130.85125 4.50625 131 1 C142.55 1 154.1 1 166 1 C166.061875 4.67125 166.12375 8.3425 166.1875 12.125 C166.22846802 13.84420654 166.22846802 13.84420654 166.27026367 15.59814453 C166.31542189 21.13658169 166.23686777 25.26800759 163 30 C157.32441013 35.23900604 152.47585554 36.36281527 144.97265625 37.33984375 C140.75169249 38.27721941 137.94497904 39.85950805 135.1875 43.1875 C133.07904427 48.18121093 133.37828815 52.29847283 135.1875 57.25 C137.97294704 61.4761955 140.49434925 63.65435789 145.48828125 64.80078125 C146.75027344 64.96964844 148.01226562 65.13851562 149.3125 65.3125 C156.13352001 66.40728284 160.59567281 68.59232016 165 74 C167.35629717 78.71259433 166.64642817 85.43899157 165.38671875 90.4296875 C163.44523565 94.96266567 160.983674 97.26575184 156.484375 99.2109375 C153.46034915 100.17139854 150.41972168 100.79777789 147.3125 101.4375 C141.92703889 102.57325194 139.21454866 103.52259293 136 108 C134.71394339 110.57211322 134.78956059 112.56906966 134.68359375 115.4453125 C134.64548584 116.41484863 134.60737793 117.38438477 134.56811523 118.38330078 C134.52501221 119.61806152 134.48190918 120.85282227 134.4375 122.125 C134.293125 126.04375 134.14875 129.9625 134 134 C122.12 134 110.24 134 98 134 C97.938125 130.514375 97.87625 127.02875 97.8125 123.4375 C97.77153198 121.81026001 97.77153198 121.81026001 97.72973633 120.15014648 C97.66650905 112.75935367 98.44773915 107.87129346 103.5 102.1875 C107.27247211 98.8865869 109.37650714 97.78779428 114.3125 97.5625 C119.74291902 97.15360451 123.55558229 96.02296638 127.8125 92.5 C130.7372981 88.80551819 130.38716212 84.21992693 130.3515625 79.734375 C129.795264 75.40760887 128.23525646 73.86761368 125 71 C120.10853804 67.95077696 114.56092598 68.25012881 109 69 C105.77089743 70.62969717 103.63925417 72.72149165 102 76 C101.70973453 78.08071488 101.44221922 80.16463514 101.1875 82.25 C100.14226058 89.12737245 98.23405994 93.26495208 93 97.875 C88.11296855 101.13653935 82.63418307 100.84630288 77 100 C71.78964332 97.48786375 68.55691036 93.86799276 65.8125 88.8125 C65.02881209 86.09973415 64.81203002 83.80545033 64.625 81 C64.251998 76.52397598 63.3617529 74.16400273 60 71 C55.32547607 67.88365071 50.47314148 68.40635238 45 69 C40.9244417 71.00202864 38.38845645 73.16894307 36 77 C35.26222851 81.85337912 35.33802352 86.48691089 37.3125 91 C40.51787616 94.87488018 40.51787616 94.87488018 45 97 C46.72825319 97.1005123 48.45767489 97.18168533 50.1875 97.25 C55.83854347 97.72902885 59.72943958 99.25407845 64 103 C67.4347644 107.54275291 68.13018298 111.60852735 68.09765625 117.203125 C68.09515869 118.08645508 68.09266113 118.96978516 68.09008789 119.87988281 C68.08098389 120.99202148 68.07187988 122.10416016 68.0625 123.25 C68.041875 126.7975 68.02125 130.345 68 134 C56.12 134 44.24 134 32 134 C31.6875 122.3125 31.6875 122.3125 31.61206055 118.65356445 C31.57894775 117.691521 31.54583496 116.72947754 31.51171875 115.73828125 C31.48553467 114.75899658 31.45935059 113.77971191 31.43237305 112.77075195 C30.76983803 108.52506594 29.1104106 105.85182183 25.71875 103.25 C22.58910274 101.81108172 19.91785791 101.38331117 16.5 101 C11.89287258 100.48331281 8.77907891 99.74842103 5 97 C0.5375518 91.05006906 -0.52980292 86.41536857 -0.4765625 79.0859375 C0.31644802 73.95086937 3.06855637 71.19329503 7 68 C10.86587285 65.27631685 13.89752627 64.88000192 18.5 64.625 C24.04498525 64.24779012 26.31488574 63.15756481 30 59 C32.44101709 54.89465308 32.45213598 50.65323275 32 46 C31.20923337 42.96872793 30.8178638 41.5358418 28.1875 39.8125 C27.465625 39.544375 26.74375 39.27625 26 39 C25.29875 38.649375 24.5975 38.29875 23.875 37.9375 C21.11112068 37.03623501 18.94323873 36.81071479 16.0625 36.625 C10.02040222 36.10428429 6.69533102 33.9244298 2.6875 29.375 C0.08718381 25.71529574 -0.12021889 23.80334108 -0.09765625 19.3359375 C-0.09515869 18.3257959 -0.09266113 17.3156543 -0.09008789 16.27490234 C-0.08098389 14.98793457 -0.07187988 13.7009668 -0.0625 12.375 C-0.041875 8.29125 -0.02125 4.2075 0 0 Z "
          fill="#040300" transform="translate(42,58)"/>
</svg>
