<svg xmlns="http://www.w3.org/2000/svg" width="40" height="40" viewBox="0 0 40 40" fill="none">
    <rect width="40" height="40" fill="#162F29"/>
    <path d="M31.2892 20.2043C31.2892 20.3173 31.2876 20.4303 31.2843 20.5433H25.8638V20.2963H20.6466C20.6466 20.2447 20.6482 20.193 20.6482 20.143C20.6482 20.0929 20.6482 20.0397 20.6466 19.9896H25.8638V19.7442H31.2796C31.286 19.8976 31.2892 20.051 31.2892 20.2043ZM20.5546 19.0921L25.6605 18.4642L25.691 18.7095L31.0825 18.0461C31.0308 17.7813 30.9695 17.5199 30.9002 17.2632L25.5925 17.917L25.6233 18.1623L20.4932 18.7935C20.5158 18.8936 20.5368 18.9936 20.5546 19.0953V19.0921ZM20.2883 18.1042L25.1681 16.8855L25.2278 17.1244L30.4063 15.8314C30.2997 15.5812 30.185 15.3342 30.0624 15.0937L25.0357 16.3495L25.0954 16.5885L20.1752 17.8185C20.2156 17.9137 20.2527 18.009 20.2883 18.1058V18.1042ZM19.8556 17.1793L24.4174 15.4569L24.5046 15.6877L29.3311 13.8653C29.1746 13.636 29.0099 13.4133 28.8356 13.197L24.2222 14.9387L24.3093 15.1695L19.6926 16.9129C19.7491 17.0001 19.804 17.0889 19.8556 17.1793ZM19.2568 16.3237L23.2859 14.2236L23.3988 14.4431L27.8542 12.1203C27.6491 11.9217 27.436 11.7329 27.2165 11.5505L23.0292 13.7329L23.1422 13.9524L19.0453 16.088C19.1163 16.1655 19.1873 16.243 19.2552 16.3237H19.2568ZM18.285 15.4004L21.9331 13.0807L22.0655 13.289L26.0913 10.7288C25.8379 10.5674 25.5796 10.4173 25.3132 10.2769L21.6377 12.6142L21.7701 12.8225L18.017 15.2083C18.109 15.2696 18.1978 15.3342 18.2866 15.4004H18.285ZM17.423 14.8612L20.4803 12.3543L20.6369 12.5448L24.08 9.71994C23.7879 9.60856 23.4876 9.50848 23.1842 9.42131L20.13 11.9266L20.2866 12.117L17.1179 14.716C17.2212 14.7611 17.3229 14.8096 17.423 14.8612ZM16.2818 14.4173L18.6966 12.0137L18.8693 12.1881L21.938 9.13882C21.6055 9.08394 21.2681 9.04358 20.9259 9.01776L18.3092 11.6215L18.4819 11.7958L15.9315 14.3334C16.0493 14.3576 16.1655 14.385 16.2818 14.4173ZM14.9468 14.2156L16.8726 11.8814L17.063 12.038L19.5699 9C19.189 9.01776 18.8128 9.05488 18.4432 9.10977L16.4464 11.5295L16.6369 11.6861L14.5513 14.2139C14.6094 14.2123 14.6691 14.2107 14.7272 14.2107C14.8015 14.2107 14.8742 14.2107 14.9468 14.2139V14.2156ZM13.7926 14.285L15.2761 11.9895L15.4827 12.1235L17.2761 9.34706C16.8661 9.45361 16.4658 9.58273 16.0751 9.73285L14.8128 11.6877L15.0194 11.8217L13.3761 14.3657C13.5134 14.3334 13.6522 14.3059 13.7926 14.2833V14.285ZM12.5109 14.6417L13.5779 12.6417L13.7942 12.7579L15.2067 10.1122C14.7531 10.3333 14.3172 10.5836 13.9008 10.8612L13.0888 12.3818L13.3067 12.498L12.0509 14.8516C12.1994 14.7757 12.3527 14.7063 12.5093 14.6433L12.5109 14.6417ZM11.5908 15.1114L12.0444 13.8233L12.2769 13.9056L13.1582 11.4036C12.7111 11.7587 12.2914 12.1461 11.9024 12.5642L11.523 13.6409L11.7555 13.7232L11.1614 15.4085C11.3003 15.3035 11.4423 15.2051 11.5892 15.113L11.5908 15.1114ZM10.4592 16.0332L10.6594 15.0969L10.8999 15.1486L11.3035 13.2632C10.879 13.8023 10.5028 14.3818 10.1816 14.9936L10.3608 15.0323L9.99274 16.582C10.1364 16.3899 10.293 16.2059 10.4592 16.0332ZM9.62793 17.1276V15.8879C9.3277 16.6805 9.11461 17.6668 9 18.6337C9.14044 18.0977 9.35351 17.5925 9.62793 17.1276ZM9.00807 21.6845C9.12591 22.5094 9.33253 23.3052 9.61986 24.0623V23.147C9.35513 22.695 9.14689 22.2043 9.00807 21.6845ZM10.0315 23.7588L10.3527 25.2568L10.1735 25.2956C10.4948 25.909 10.8709 26.487 11.2954 27.0259L10.8919 25.1407L10.6513 25.1922L10.4479 24.2447C10.3011 24.0898 10.1606 23.9283 10.0315 23.7572V23.7588ZM11.1501 24.8726L11.7474 26.5676L11.515 26.6499L11.8943 27.7267C12.2833 28.1446 12.703 28.532 13.1502 28.8873L12.2688 26.3851L12.0363 26.4676L11.5811 25.1728C11.4342 25.0792 11.2906 24.9809 11.1518 24.8759L11.1501 24.8726ZM12.0412 25.4327L13.3003 27.7927L13.0824 27.909L13.8943 29.4296C14.3108 29.7073 14.7466 29.9574 15.2002 30.1785L13.7878 27.5328L13.5699 27.6491L12.4996 25.6442C12.343 25.5814 12.1897 25.5102 12.0396 25.4345L12.0412 25.4327ZM13.3665 25.9204L15.0114 28.4676L14.8047 28.6015L16.0671 30.5563C16.4577 30.7065 16.858 30.8356 17.268 30.9421L15.4746 28.1656L15.268 28.2995L13.7829 26.0011C13.6425 25.9783 13.5021 25.9509 13.3648 25.9186L13.3665 25.9204ZM14.5416 26.0753L16.6272 28.6031L16.4367 28.7598L18.4335 31.1795C18.8032 31.2343 19.1793 31.2713 19.5602 31.2892L17.0533 28.2496L16.8629 28.4061L14.9371 26.0719C14.8677 26.0753 14.7967 26.0753 14.7256 26.0753C14.6643 26.0753 14.6014 26.0753 14.54 26.0719L14.5416 26.0753ZM15.925 25.9558L18.4739 28.4916L18.3011 28.6659L20.9178 31.2698C21.26 31.2439 21.5974 31.2036 21.9299 31.1487L18.8629 28.0978L18.6886 28.2739L16.2753 25.8718C16.1607 25.9025 16.0428 25.9315 15.925 25.9558ZM17.1131 25.5764L20.2786 28.1738L20.122 28.3642L23.1761 30.8695C23.4795 30.7823 23.7798 30.6822 24.0719 30.5708L20.6272 27.7459L20.4706 27.9364L17.4165 25.4311C17.3165 25.4828 17.2148 25.5312 17.1114 25.5764H17.1131ZM18.0106 25.0825L21.7588 27.4668L21.6264 27.675L25.3021 30.0122C25.5684 29.8718 25.8283 29.7202 26.08 29.5604L22.0542 27.0003L21.9218 27.2085L18.2785 24.8919C18.1898 24.9581 18.101 25.0228 18.009 25.0841L18.0106 25.0825ZM19.0437 24.2043L23.1357 26.3367L23.0227 26.5563L27.21 28.7386C27.4296 28.5563 27.6427 28.3675 27.8477 28.1689L23.3924 25.8459L23.2794 26.0655L19.2552 23.9687C19.1873 24.0494 19.1179 24.1285 19.0453 24.2043H19.0437ZM19.691 23.3779L24.3013 25.1195L24.2141 25.3504L28.8275 27.0921C29.0003 26.8759 29.1648 26.653 29.323 26.4239L24.4965 24.6015L24.4094 24.8322L19.854 23.1115C19.8024 23.2019 19.7475 23.2907 19.691 23.3779ZM20.1736 22.4739L25.0856 23.7007L25.0259 23.9395L30.0526 25.1955C30.1769 24.955 30.2915 24.7081 30.398 24.4578L25.2196 23.1648L25.1599 23.4037L20.2866 22.1866C20.2511 22.2834 20.2124 22.3787 20.1736 22.4739ZM20.4932 21.4989L25.6152 22.1284L25.5845 22.3738L30.892 23.0276C30.9615 22.7693 31.0228 22.5078 31.0745 22.2447L25.683 21.5812L25.6522 21.8266L20.5546 21.1987C20.5368 21.3004 20.5158 21.4004 20.4932 21.5005V21.4989Z"
          fill="white"/>
</svg>