<svg width="32" height="32" viewBox="0 0 32 32" fill="none" xmlns="http://www.w3.org/2000/svg">
    <rect width="32" height="32" fill="#010508"/>
    <path d="M15.9999 8.63887C16.0046 8.43677 16.256 8.36253 16.3635 8.52998C17.6584 10.5485 19.863 11.8774 22.3657 11.8774C23.304 11.8774 24.2004 11.6902 25.0225 11.3503C23.3862 7.8981 19.9847 5.51993 16.0489 5.50013C10.5242 5.47208 5.98129 10.1509 5.93782 15.9161C5.92912 17.0718 6.09987 18.1854 6.42238 19.2272C8.80016 19.0219 11.1242 17.9709 12.9431 16.072C14.9161 14.013 15.9351 11.3363 15.9999 8.63887Z" fill="white"/>
    <path d="M15.9518 26.5C21.4757 26.5272 26.0179 21.8508 26.0621 16.0864C26.0709 14.9307 25.9001 13.818 25.5783 12.7761C23.1998 12.9815 20.8765 14.0324 19.0569 15.9314C17.0838 17.9902 16.0656 20.667 16.0009 23.3645C15.9961 23.5666 15.7448 23.6408 15.6372 23.4733C14.3424 21.4549 12.1377 20.1259 9.63504 20.1259C8.69752 20.1259 7.80111 20.3124 6.979 20.6522C8.6161 24.1028 12.0168 26.4801 15.9518 26.5Z" fill="white"/>
</svg>
