<svg xmlns="http://www.w3.org/2000/svg" width="40" height="40" viewBox="0 0 40 40" fill="none">
    <rect width="40" height="40" fill="white"/>
    <path d="M26.7608 8.31833C24.6857 7.12002 22.4393 6.5 20 6.5C17.5607 6.5 15.3148 7.09891 13.2392 8.31833C11.1636 9.53775 9.53775 11.1636 8.31833 13.2392C7.09891 15.3143 6.5 17.5607 6.5 20C6.5 22.4393 7.09891 24.6852 8.31833 26.7608C9.53775 28.8359 11.1636 30.4623 13.2392 31.6817C15.3148 32.9011 17.5607 33.5 20 33.5C22.4393 33.5 24.6852 32.9011 26.7608 31.6817C28.8364 30.4623 30.4623 28.8364 31.6817 26.7608C32.9011 24.6857 33.5 22.4393 33.5 20C33.5 17.5607 32.9011 15.3148 31.6817 13.2392C30.4623 11.1636 28.8364 9.53775 26.7608 8.31833ZM20.8345 24.8782C19.3157 24.8782 18.0963 24.4501 17.1547 23.5733C16.5131 22.9744 16.1066 22.2469 15.8926 21.3912H30.4411C30.2914 22.6323 29.9277 23.7874 29.3715 24.8787H20.8134H20.835L20.8345 24.8782ZM15.9137 18.652C16.1061 17.8174 16.5342 17.0904 17.1547 16.491C18.0747 15.6137 19.3157 15.1645 20.8345 15.1645H29.4353C29.9915 16.2558 30.3336 17.4109 30.4623 18.652H15.9137ZM10.8858 14.6299C11.8273 13.0041 13.0895 11.7203 14.6943 10.7577C16.299 9.79498 18.0747 9.3242 20 9.3242C21.9253 9.3242 23.7015 9.79498 25.3057 10.7577C26.1187 11.2495 26.8673 11.8273 27.5094 12.4906H20.7059C19.1655 12.4906 17.7963 12.8116 16.598 13.4532C15.3997 14.0949 14.4586 14.9721 13.7954 16.1061C13.3246 16.8979 13.0252 17.7536 12.897 18.6736H9.55935C9.73067 17.2401 10.1583 15.8921 10.8858 14.6515V14.6299ZM25.3057 29.2423C23.701 30.205 21.9253 30.6758 20 30.6758C18.0747 30.6758 16.2985 30.205 14.6943 29.2423C13.0895 28.2797 11.8057 26.9959 10.8858 25.3701C10.1799 24.1506 9.73067 22.8242 9.55935 21.4119H12.897C13.0252 22.3318 13.3251 23.1875 13.7954 23.9793C14.4586 25.0917 15.4002 25.9906 16.598 26.6322C17.7963 27.2738 19.1655 27.5949 20.7059 27.5949H27.4451C26.8035 28.2365 26.0971 28.7932 25.3057 29.2635V29.2419V29.2423Z" fill="#33312E"/>
</svg>